<svg width="568" height="577" viewBox="0 0 568 577" fill="none" xmlns="http://www.w3.org/2000/svg">
<path d="M36.9228 165.532C75.3487 125.841 135.316 120.366 179.686 149.105C192.31 157.281 207.595 160.022 222.26 156.753C256.969 149.014 293.277 154.3 324.201 171.153C344.992 182.482 370.314 180.512 389.715 166.924C402.594 157.904 417.548 151.441 433.982 148.4C494.942 137.12 554.21 177.718 565.928 238.834C577.913 301.337 536.648 361.403 474.445 372.529C459.248 375.248 444.219 374.789 430.034 371.628C407.013 366.499 382.96 375.075 368.103 393.463C358.726 405.07 347.417 415.428 334.282 424.035C266.402 468.508 175.469 449.308 131.177 381.151C131.13 381.08 131.083 381.007 131.036 380.935C122.924 368.404 110.307 359.471 95.7167 356.513C74.436 352.199 54.1504 341.714 37.7057 325.052C-5.58917 281.183 -5.94989 209.815 36.9228 165.532Z" fill="#CCF5F0"/>
<path d="M488 257C487.12 257 486.238 256.664 485.567 255.992L478.008 248.433C476.664 247.089 476.664 244.911 478.008 243.567L485.567 236.008C486.91 234.664 489.09 234.664 490.433 236.008L497.992 243.567C499.336 244.911 499.336 247.089 497.992 248.433L490.433 255.992C489.762 256.664 488.881 257 488 257ZM485.307 246L488 248.693L490.693 246L488 243.307L485.307 246Z" fill="white"/>
<path d="M438 118C437.12 118 436.238 117.664 435.567 116.992L428.008 109.433C426.664 108.09 426.664 105.911 428.007 104.568L435.567 97.0082C436.212 96.3627 437.087 96 438 96C438.913 96 439.788 96.362 440.433 97.0082L447.993 104.568C449.336 105.911 449.336 108.09 447.992 109.433L440.433 116.992C439.761 117.664 438.88 118 438 118ZM435.307 107L438 109.693L440.693 107L438 104.307L435.307 107Z" fill="#CCF5F0"/>
<path d="M85 425C83.1035 425 81.5668 423.463 81.5668 421.567C81.5668 419.288 79.7129 417.434 77.4332 417.434C75.5367 417.434 74 415.897 74 414C74 412.104 75.5367 410.567 77.4332 410.567C79.7122 410.567 81.5668 408.713 81.5668 406.433C81.5668 404.537 83.1035 403 85 403C86.8965 403 88.4332 404.537 88.4332 406.433C88.4332 408.712 90.2871 410.567 92.5668 410.567C94.4633 410.567 96 412.104 96 414C96 415.897 94.4633 417.434 92.5668 417.434C90.2878 417.434 88.4332 419.288 88.4332 421.567C88.4332 423.463 86.8965 425 85 425Z" fill="#00CCB3"/>
<path d="M444.153 325.625C441.391 324.885 439.753 322.048 440.493 319.286C441.383 315.968 439.407 312.544 436.087 311.654C433.326 310.914 431.687 308.077 432.427 305.315C433.167 302.553 436.005 300.915 438.766 301.655C442.085 302.544 445.509 300.568 446.398 297.25C447.138 294.488 449.975 292.85 452.737 293.59C455.499 294.33 457.137 297.167 456.397 299.929C455.508 303.246 457.484 306.67 460.803 307.56C463.565 308.3 465.203 311.137 464.463 313.899C463.723 316.661 460.886 318.299 458.124 317.559C454.805 316.67 451.381 318.646 450.492 321.965C449.752 324.726 446.915 326.365 444.153 325.625Z" fill="#88E766"/>
<rect x="1" y="573" width="567" height="4" fill="#00CCB3"/>
<path d="M251.209 325.172H292.802V400.751C292.802 406.265 290.612 411.553 286.713 415.452C282.814 419.351 277.526 421.541 272.012 421.541C266.498 421.541 261.21 419.351 257.311 415.452C253.412 411.553 251.222 406.265 251.222 400.751V325.172H251.209Z" fill="#FDD2BF"/>
<path d="M294.883 375.763V388.245C281.195 391.134 267.084 391.418 253.291 389.082V376.6C267.084 378.936 281.195 378.652 294.883 375.763Z" fill="white"/>
<path d="M271.286 423.019C269.045 423.455 266.726 423.259 264.59 422.452C263.127 421.973 261.71 421.364 260.356 420.631C259.292 420.058 258.283 419.391 257.34 418.637C254.72 416.372 252.552 413.632 250.952 410.562C249.611 407.879 248.86 404.942 248.748 401.945C248.674 400.887 248.748 399.963 248.748 398.979C248.748 397.994 248.748 396.985 248.748 395.951C248.748 393.883 248.748 391.741 248.748 389.624C248.834 381.143 248.908 372.994 248.92 371.517C248.92 366.999 249.093 353.312 248.92 350.985C248.748 348.659 248.92 337.297 248.822 334.183C248.822 332.952 248.822 331.721 248.822 330.49V327.758C248.822 326.12 248.822 324.471 248.822 322.834L253.844 322.723L256.577 322.612C258.349 322.551 260.122 322.502 261.894 322.538C265.169 322.538 268.455 322.538 271.742 322.538C272.517 322.538 273.305 322.538 274.081 322.538C277.207 322.625 280.334 322.637 283.472 322.625H295.535C295.535 325.677 295.535 328.73 295.535 331.783L295.474 336.928C295.474 338.011 295.474 339.119 295.474 340.19C295.659 346.123 295.474 352.031 295.351 357.927C295.351 358.715 295.277 359.515 295.351 360.266C295.609 364.611 295.351 368.969 295.412 373.326C295.412 374.717 295.412 376.121 295.412 377.524C295.412 378.619 295.351 379.715 295.412 380.798C295.536 385.636 295.412 390.461 295.474 395.298C295.474 395.606 295.474 395.926 295.474 396.234C295.536 397.526 295.56 398.806 295.572 400.099C295.572 400.702 295.572 401.428 295.499 402.155L295.425 403.225L295.252 404.296C294.775 407.114 293.75 409.811 292.237 412.236C290.383 415.126 288.062 417.688 285.368 419.818C284.836 420.25 284.263 420.63 283.657 420.951C280.609 422.565 277.252 423.514 273.81 423.733H273.317C272.763 423.733 272.185 422.822 272.197 422.625C272.527 422.119 272.893 421.638 273.293 421.185C273.652 420.675 274.065 420.204 274.524 419.781C274.895 419.65 275.273 419.539 275.656 419.449C276.779 419.246 277.823 418.734 278.672 417.972C279.169 417.572 279.72 417.245 280.309 416.999C282.811 415.885 284.985 414.148 286.624 411.953C288.27 409.758 289.436 407.242 290.046 404.567L290.316 402.856C290.316 402.265 290.378 401.687 290.403 401.108V357.275C290.403 354.936 290.403 352.61 290.538 350.283C290.673 347.957 290.661 345.926 290.661 343.747V332.534V327.61H284.396L257.537 327.438C257.229 327.438 256.909 327.438 256.614 327.438C255.974 327.438 255.174 327.524 254.25 327.548H253.77H253.598V327.868C253.598 328.792 253.598 329.739 253.598 330.687C253.598 332.607 253.598 334.503 253.598 336.214C253.598 339.636 253.598 342.295 253.598 342.726V357.226C253.598 362.039 253.672 366.852 253.598 371.677C253.598 375.874 253.598 380.096 253.598 384.294C253.598 384.922 253.598 385.525 253.598 386.165C253.598 387.888 253.598 390.916 253.487 394.56C253.487 396.381 253.487 398.351 253.487 400.394C253.46 402.244 253.696 404.089 254.189 405.872C255.121 409.145 256.94 412.098 259.445 414.402C260.864 415.704 262.475 416.779 264.221 417.59C264.814 417.855 265.382 418.173 265.92 418.538C266.456 418.861 267.011 419.153 267.581 419.412C268.007 419.726 268.465 419.994 268.948 420.212C269.272 420.332 269.606 420.426 269.945 420.495L271.016 420.655C271.705 420.778 272.062 421.074 271.877 421.357C271.693 421.64 271.508 422.736 271.286 423.019Z" fill="#00CCB3"/>
<path d="M272.924 399.471C274.276 399.471 275.373 398.374 275.373 397.021C275.373 395.669 274.276 394.572 272.924 394.572C271.571 394.572 270.474 395.669 270.474 397.021C270.474 398.374 271.571 399.471 272.924 399.471Z" fill="#E8AF94"/>
<path d="M359.063 102.105H358.275C337.561 102.105 320.769 118.897 320.769 139.611V215.977C320.769 236.691 337.561 253.484 358.275 253.484H359.063C379.777 253.484 396.569 236.691 396.569 215.977V139.611C396.569 118.897 379.777 102.105 359.063 102.105Z" fill="#B8F1A3"/>
<path d="M393.308 122.821H325.435C328.026 117.647 331.78 113.144 336.402 109.662H382.352C386.968 113.147 390.717 117.65 393.308 122.821Z" fill="#88E766"/>
<path d="M175.582 250.012H174.794C154.066 250.012 160.22 235.758 160.22 215.042L141.621 143.353C140.333 138.647 139.996 133.731 140.63 128.893C141.264 124.055 142.856 119.392 145.314 115.177C148.325 110.072 152.632 105.854 157.798 102.949C162.964 100.044 168.806 98.5552 174.733 98.6336H175.521C180.457 98.619 185.347 99.5787 189.912 101.458C194.477 103.337 198.626 106.098 202.122 109.583C205.617 113.069 208.391 117.21 210.283 121.769C212.176 126.328 213.15 131.216 213.15 136.152V212.469C213.155 217.403 212.186 222.289 210.3 226.848C208.413 231.407 205.646 235.548 202.156 239.036C198.666 242.523 194.522 245.288 189.962 247.171C185.403 249.055 180.516 250.02 175.582 250.012Z" fill="#88E766"/>
<path d="M211.992 125.862C201.353 129.375 189.925 129.733 179.087 126.894C168.249 124.054 158.464 118.138 150.914 109.86C153.153 107.863 155.634 106.155 158.3 104.776C165.018 110.917 173.086 115.394 181.852 117.844C190.619 120.294 199.838 120.65 208.767 118.883C210.087 121.088 211.169 123.428 211.992 125.862Z" fill="#88E766"/>
<path d="M362.202 256.562H361.427C350.653 256.562 340.321 252.282 332.704 244.664C325.086 237.046 320.806 226.714 320.806 215.941V139.624C320.806 128.851 325.086 118.519 332.704 110.901C340.321 103.283 350.653 99.0037 361.427 99.0037H362.202C372.975 99.0037 383.307 103.283 390.925 110.901C398.543 118.519 402.822 128.851 402.822 139.624H396.668C396.668 130.483 393.037 121.717 386.573 115.253C380.109 108.789 371.343 105.158 362.202 105.158H361.427C352.286 105.158 343.519 108.789 337.056 115.253C330.592 121.717 326.961 130.483 326.961 139.624V215.941C326.961 225.082 330.592 233.849 337.056 240.312C343.519 246.776 352.286 250.407 361.427 250.407H362.202C371.343 250.407 380.109 246.776 386.573 240.312C393.037 233.849 396.668 225.082 396.668 215.941H402.822C402.822 226.714 398.543 237.046 390.925 244.664C383.307 252.282 372.975 256.562 362.202 256.562Z" fill="#00CCB3"/>
<path d="M177.724 251.747C174.432 252.417 171.017 252.139 167.876 250.947C165.769 250.213 163.864 248.993 162.314 247.388C160.764 245.782 159.612 243.835 158.952 241.703C158.248 239.295 157.798 236.82 157.61 234.318C157.389 231.856 157.303 229.554 157.229 227.227C157.155 225.098 157.229 220.642 157.229 215.509L153.081 198.596L146.754 172.599C145.966 169.362 144.366 162.826 142.864 156.683C141.362 150.541 139.836 144.928 139.491 142.959C139.38 142.491 139.22 141.801 139.073 140.94C138.925 140.078 138.913 139.106 138.814 137.875C138.711 136.646 138.711 135.411 138.814 134.182L138.888 132.163L139.184 130.108C139.848 125.577 141.24 121.183 143.307 117.097L143.923 115.718C144.156 115.287 144.44 114.869 144.698 114.487C145.24 113.663 145.781 112.826 146.335 112.025C148.88 108.655 151.828 105.609 155.112 102.954C158.491 100.349 162.304 98.3616 166.375 97.0821C168.91 96.3475 171.512 95.861 174.142 95.6296L176.111 95.4326H178.068C179.299 95.4326 180.666 95.5311 181.958 95.5926H182.894L183.829 95.728C184.445 95.8142 185.06 95.9004 185.688 96.0112C192.348 97.2588 198.609 100.092 203.942 104.271C209.28 108.457 213.476 113.923 216.141 120.162C216.633 121.393 217.076 122.759 217.532 124.052L218.516 128.052L218.886 130.649L219.07 131.88L219.157 133.111C219.23 134.268 219.353 135.573 219.366 136.619V139.894V146.454L219.144 159.539C219.144 160.696 219.058 161.878 219.144 162.986C219.452 169.423 219.144 175.861 219.144 182.286C219.144 184.354 219.144 186.435 219.144 188.503C219.144 190.115 219.07 191.74 219.144 193.34C219.23 196.91 219.23 200.479 219.23 204.049V212.087C219.23 212.998 219.144 213.995 219.107 214.943C219.107 215.435 219.107 215.94 219.107 216.432C218.78 220.535 217.769 224.554 216.116 228.323C214.395 232.017 212.129 235.432 209.395 238.453C206.06 242.057 202.24 245.18 198.046 247.735C197.222 248.202 196.298 248.695 195.437 249.076C190.884 250.95 186.049 252.048 181.133 252.326C180.899 252.326 180.666 252.326 180.432 252.326C180.06 252.298 179.702 252.171 179.394 251.959C179.087 251.747 178.842 251.458 178.684 251.12C179.169 250.487 179.713 249.901 180.309 249.372C180.901 248.713 181.6 248.16 182.377 247.735C182.95 247.547 183.534 247.391 184.125 247.267C185.836 247.015 187.476 246.407 188.937 245.482C189.76 244.937 190.66 244.522 191.609 244.251C195.563 242.773 199.173 240.503 202.219 237.579C205.297 234.669 207.838 231.24 209.728 227.449C211.349 224.226 212.39 220.743 212.805 217.159C213 216.056 213.115 214.941 213.15 213.823C213.236 212.739 213.223 211.496 213.223 210.278V158.8C213.223 155.342 213.223 151.907 213.384 148.461C213.494 145.26 213.531 142.023 213.544 138.798C213.544 137.432 213.544 136.004 213.457 134.773L213.359 132.853C213.359 132.213 213.174 131.622 213.088 130.957L212.78 129.061L212.288 127.203C211.964 125.965 211.552 124.751 211.057 123.571C209.739 120.191 207.913 117.033 205.641 114.204C203.319 111.408 200.598 108.97 197.566 106.966L195.621 105.735C194.981 105.329 194.267 105.046 193.59 104.701C192.219 104.045 190.809 103.473 189.368 102.99C186.469 102.064 183.46 101.526 180.419 101.39C174.286 100.971 168.154 102.23 162.682 105.034C162.29 105.193 161.912 105.382 161.549 105.6C160.799 106.154 159.851 106.831 158.755 107.545C158.226 107.951 157.709 108.419 157.143 108.887C156.539 109.357 155.963 109.862 155.419 110.401C154.225 111.547 153.118 112.781 152.108 114.093C151.042 115.418 150.071 116.816 149.203 118.279C146.938 122.168 145.438 126.455 144.784 130.908C144.546 132.538 144.431 134.184 144.44 135.831C144.429 136.654 144.474 137.477 144.575 138.293C144.614 139.118 144.696 139.939 144.821 140.755C145.178 142.392 145.375 143.906 145.867 145.679L147.172 150.886C148.871 157.791 150.717 164.66 152.367 171.602C153.807 177.634 155.395 183.653 156.921 189.684C157.155 190.571 157.401 191.469 157.61 192.355L160.503 204.418L162.546 212.789L162.817 213.897L162.928 214.327C162.979 214.496 163.012 214.669 163.027 214.844V215.706C163.027 216.481 163.027 217.257 163.027 218.032C163.027 219.571 162.953 221.11 162.928 222.648C162.78 228.803 162.67 234.65 163.679 238.724C163.886 239.982 164.34 241.186 165.014 242.267C165.687 243.349 166.568 244.286 167.606 245.027C168.356 245.544 169.033 245.974 169.735 246.467C170.499 246.919 171.303 247.302 172.135 247.611C172.802 247.999 173.502 248.325 174.228 248.584C175.256 248.823 176.301 248.98 177.354 249.052C178.401 249.187 178.955 249.507 178.672 249.852C178.388 250.196 178.031 251.415 177.724 251.747Z" fill="#B8F1A3"/>
<path d="M163.359 217.688H157.143C149.067 217.688 142.52 224.236 142.52 232.312V232.324C142.52 240.4 149.067 246.947 157.143 246.947H163.359C171.435 246.947 177.982 240.4 177.982 232.324V232.312C177.982 224.236 171.435 217.688 163.359 217.688Z" fill="white"/>
<path d="M165.144 258.309H155.395C148.609 258.162 142.151 255.362 137.405 250.511C132.658 245.66 130 239.143 130 232.355C130 225.568 132.658 219.051 137.405 214.2C142.151 209.348 148.609 206.549 155.395 206.401H165.144C171.929 206.549 178.387 209.348 183.134 214.2C187.881 219.051 190.539 225.568 190.539 232.355C190.539 239.143 187.881 245.66 183.134 250.511C178.387 255.362 171.929 258.162 165.144 258.309ZM155.432 212.556C150.266 212.685 145.355 214.827 141.747 218.526C138.139 222.225 136.12 227.188 136.12 232.355C136.12 237.523 138.139 242.485 141.747 246.184C145.355 249.883 150.266 252.026 155.432 252.155H165.144C170.309 252.026 175.22 249.883 178.828 246.184C182.436 242.485 184.456 237.523 184.456 232.355C184.456 227.188 182.436 222.225 178.828 218.526C175.22 214.827 170.309 212.685 165.144 212.556H155.432Z" fill="#00CCB3"/>
<path d="M384.605 210.795H374.893C362.262 210.795 352.022 221.035 352.022 233.666V233.678C352.022 246.309 362.262 256.549 374.893 256.549H384.605C397.236 256.549 407.475 246.309 407.475 233.678V233.666C407.475 221.035 397.236 210.795 384.605 210.795Z" fill="white"/>
<path d="M382.869 217.688H376.653C368.576 217.688 362.029 224.236 362.029 232.312V232.324C362.029 240.4 368.576 246.947 376.653 246.947H382.869C390.945 246.947 397.492 240.4 397.492 232.324V232.312C397.492 224.236 390.945 217.688 382.869 217.688Z" fill="white"/>
<path d="M384.605 258.309H374.905C371.449 258.384 368.013 257.768 364.799 256.498C361.584 255.228 358.655 253.328 356.184 250.91C353.714 248.493 351.751 245.606 350.41 242.42C349.07 239.234 348.38 235.812 348.38 232.355C348.38 228.898 349.07 225.476 350.41 222.29C351.751 219.104 353.714 216.217 356.184 213.8C358.655 211.382 361.584 209.482 364.799 208.212C368.013 206.941 371.449 206.326 374.905 206.401H384.605C391.39 206.549 397.848 209.348 402.595 214.199C407.342 219.05 410 225.568 410 232.355C410 239.142 407.342 245.659 402.595 250.511C397.848 255.362 391.39 258.161 384.605 258.309ZM374.905 212.556C372.264 212.49 369.636 212.953 367.176 213.918C364.716 214.884 362.474 216.332 360.583 218.177C358.691 220.022 357.188 222.227 356.161 224.662C355.135 227.097 354.606 229.712 354.606 232.355C354.606 234.997 355.135 237.613 356.161 240.048C357.188 242.483 358.691 244.688 360.583 246.533C362.474 248.378 364.716 249.826 367.176 250.791C369.636 251.757 372.264 252.22 374.905 252.154H384.605C389.771 252.025 394.681 249.883 398.289 246.184C401.897 242.485 403.917 237.522 403.917 232.355C403.917 227.188 401.897 222.225 398.289 218.526C394.681 214.827 389.771 212.684 384.605 212.556H374.905Z" fill="#00CCB3"/>
<path d="M384.513 190.614C384.513 129.362 334.858 79.708 273.607 79.708C212.355 79.708 162.701 129.362 162.701 190.614V261.749C162.701 323.001 212.355 372.655 273.607 372.655C334.858 372.655 384.513 323.001 384.513 261.749V190.614Z" fill="white"/>
<path d="M274.019 378.828C272.604 378.89 271.176 378.915 269.748 378.915C255.183 378.915 240.762 376.046 227.306 370.472C213.85 364.899 201.624 356.73 191.325 346.431C170.527 325.632 158.842 297.423 158.842 268.009V196.874C158.842 182.307 161.711 167.883 167.286 154.426C172.861 140.969 181.033 128.741 191.334 118.442C201.635 108.144 213.864 99.9748 227.323 94.4027C240.782 88.8306 255.206 85.9643 269.772 85.9675C271.2 85.9675 262.781 85.9675 264.196 86.0537C204.915 88.2817 171.089 137.051 171.089 196.837V267.972C171.065 327.831 214.738 376.6 274.019 378.828Z" fill="white"/>
<path d="M381.515 274.225C380.092 294.77 372.976 314.513 360.966 331.242C348.955 347.972 332.523 361.026 313.512 368.944C294.5 376.861 273.659 379.329 253.325 376.07C232.99 372.811 213.964 363.955 198.378 350.493C215.061 359.782 233.631 365.168 252.694 366.248C271.757 367.328 290.817 364.073 308.442 356.728C326.066 349.383 341.797 338.139 354.451 323.841C367.105 309.543 376.354 292.562 381.503 274.176L381.515 274.225Z" fill="white"/>
<path d="M355.802 123.252H229.46C220.355 128.816 209.886 131.747 199.216 131.721C192.249 131.721 190.501 130.49 184.322 128.25C188.203 122.296 192.651 116.731 197.603 111.632C199.745 111.879 197 112.002 199.216 112.002C209.89 112.017 220.359 109.073 229.46 103.496H337.252C339.836 105.638 342.298 107.899 344.637 110.278C348.691 114.305 352.424 118.643 355.802 123.252Z" fill="#88E766"/>
<path d="M269.772 380.675C239.552 380.642 210.578 368.623 189.21 347.254C167.841 325.885 155.821 296.912 155.789 266.692V195.557C155.789 165.326 167.798 136.334 189.174 114.958C210.55 93.5822 239.542 81.5732 269.772 81.5732C300.002 81.5732 328.994 93.5822 350.37 114.958C371.746 136.334 383.755 165.326 383.755 195.557V266.692C383.723 296.912 371.703 325.885 350.334 347.254C328.965 368.623 299.992 380.642 269.772 380.675ZM269.772 87.7155C241.184 87.7481 213.776 99.1191 193.561 119.334C173.347 139.549 161.976 166.956 161.943 195.544V266.679C161.943 295.277 173.304 322.704 193.525 342.926C213.747 363.148 241.174 374.508 269.772 374.508C298.37 374.508 325.797 363.148 346.018 342.926C366.24 322.704 377.601 295.277 377.601 266.679V195.557C377.568 166.969 366.197 139.561 345.982 119.346C325.768 99.1314 298.36 87.7604 269.772 87.7279V87.7155Z" fill="#00CCB3"/>
<path d="M383.017 109.663C383.017 83.3731 372.573 58.16 353.983 39.5702C335.393 20.9805 310.18 10.5369 283.89 10.5369H226.813C218.01 5.1654 207.936 2.23502 197.626 2.04701C187.316 1.85899 177.142 4.42011 168.15 9.46708C159.157 14.5141 151.671 21.8648 146.461 30.7636C141.251 39.6623 138.505 49.7881 138.505 60.0999C138.505 70.4118 141.251 80.5375 146.461 89.4363C151.671 98.3351 159.157 105.686 168.15 110.733C177.142 115.78 187.316 118.341 197.626 118.153C207.936 117.965 218.01 115.034 226.813 109.663H383.017Z" fill="#B8F1A3"/>
<path d="M383.017 109.638H382.857C379.964 57.4962 336.759 20.8147 283.891 20.8147H226.813C217.705 15.2462 207.233 12.3067 196.557 12.3214C165.439 12.3214 140.021 32.1023 138.568 62.8753C138.568 61.9522 138.568 61.0167 138.568 60.0812C138.578 49.7798 141.327 39.6665 146.535 30.7782C151.742 21.89 159.22 14.5468 168.201 9.50176C177.183 4.45673 187.344 1.89141 197.644 2.06893C207.944 2.24644 218.011 5.16039 226.813 10.5119H283.891C310.18 10.5152 335.391 20.9599 353.98 39.5489C372.569 58.138 383.014 83.3492 383.017 109.638Z" fill="#88E766"/>
<path d="M381.848 92.3317H226.813C218.56 97.3624 209.182 100.254 199.528 100.743C189.875 101.233 180.252 99.3053 171.533 95.1355C162.813 90.9656 155.271 84.6853 149.593 76.8639C143.914 69.0425 140.277 59.9274 139.012 50.345C138.681 52.8714 138.513 55.4164 138.507 57.9644C138.51 68.275 141.258 78.3989 146.468 87.2961C151.679 96.1932 159.164 103.543 168.155 108.59C177.146 113.637 187.318 116.199 197.627 116.013C207.936 115.828 218.01 112.901 226.813 107.534H383.017C383.013 102.444 382.622 97.3621 381.848 92.3317Z" fill="#88E766"/>
<path opacity="0.4" d="M161.144 78.1881C157.286 73.3782 154.866 67.576 154.162 61.4504C153.459 55.3248 154.501 49.1251 157.168 43.5658C159.835 38.0066 164.019 33.3142 169.237 30.0294C174.455 26.7446 180.495 25.0012 186.661 25V31.1546C179.617 31.1611 172.865 33.9618 167.885 38.942C162.904 43.9222 160.104 50.6749 160.097 57.7179C160.07 63.7658 162.136 69.6368 165.944 74.3353L161.144 78.1881Z" fill="#E6FADF"/>
<path d="M193.172 64.4754V58.3208C196.668 58.215 199.986 56.7518 202.421 54.2414C204.857 51.731 206.219 48.3707 206.219 44.8729C206.219 41.3752 204.857 38.0149 202.421 35.5045C199.986 32.9941 196.668 31.5309 193.172 31.4251V25.2705C198.286 25.3987 203.147 27.5202 206.719 31.1824C210.29 34.8446 212.289 39.7575 212.289 44.8729C212.289 49.9884 210.29 54.9013 206.719 58.5635C203.147 62.2257 198.286 64.3472 193.172 64.4754Z" fill="white"/>
<path d="M351.567 97.6734C357.692 97.6734 362.657 92.708 362.657 86.5828C362.657 80.4576 357.692 75.4922 351.567 75.4922C345.442 75.4922 340.476 80.4576 340.476 86.5828C340.476 92.708 345.442 97.6734 351.567 97.6734Z" fill="white"/>
<path d="M337.436 74.8644C340.169 74.8644 342.384 72.649 342.384 69.9161C342.384 67.1832 340.169 64.9678 337.436 64.9678C334.703 64.9678 332.488 67.1832 332.488 69.9161C332.488 72.649 334.703 74.8644 337.436 74.8644Z" fill="#E6FADF"/>
<path d="M258.694 33.1365C263.106 33.1365 266.682 29.5599 266.682 25.1479C266.682 20.7358 263.106 17.1592 258.694 17.1592C254.282 17.1592 250.705 20.7358 250.705 25.1479C250.705 29.5599 254.282 33.1365 258.694 33.1365Z" fill="white"/>
<path d="M268.874 40.707C270.838 40.707 272.431 39.1143 272.431 37.1496C272.431 35.185 270.838 33.5923 268.874 33.5923C266.909 33.5923 265.316 35.185 265.316 37.1496C265.316 39.1143 266.909 40.707 268.874 40.707Z" fill="#E6FADF"/>
<path d="M150.853 223.104C149.193 224.143 147.82 225.582 146.858 227.288C145.897 228.994 145.378 230.913 145.348 232.871C145.319 234.829 145.78 236.764 146.69 238.498C147.6 240.232 148.93 241.711 150.558 242.799C150.696 243.248 150.739 243.72 150.683 244.187C150.628 244.653 150.477 245.103 150.238 245.507C149.61 246.738 148.133 247.144 147.776 246.886C144.837 244.699 142.714 241.592 141.744 238.06C140.809 234.636 141.039 230.999 142.397 227.72C143.248 225.862 144.462 224.192 145.966 222.809C146.483 222.158 147.083 221.579 147.751 221.086C148.674 220.421 149.745 220.088 150.065 220.679C150.73 221.886 151.087 222.957 150.853 223.104Z" fill="#00CCB3"/>
<path d="M392.347 218.169C394.782 219.695 396.797 221.807 398.208 224.311C399.618 226.815 400.38 229.632 400.424 232.505C400.468 235.379 399.793 238.218 398.46 240.764C397.126 243.31 395.177 245.482 392.79 247.083C392.421 247.354 390.784 246.689 389.996 245.2C389.406 244.239 389.171 243.103 389.331 241.987C391.552 240.728 393.286 238.76 394.255 236.399C395.285 233.898 395.45 231.125 394.723 228.521C394.362 226.887 393.684 225.34 392.729 223.966L391.116 222.551C390.402 221.898 389.725 221.184 390.144 220.434C391.005 218.956 391.978 217.885 392.347 218.169Z" fill="#00CCB3"/>
<path d="M233.411 140.338L237.904 140.892C239.381 141.076 240.845 141.236 242.323 141.372C245.277 141.643 248.235 141.827 251.198 141.926C254.139 142.024 257.118 141.926 260.171 141.999H269.243C275.262 141.999 281.404 141.999 287.313 141.999C293.256 141.859 299.186 141.383 305.075 140.572C305.961 140.461 308.448 141.544 308.657 143.23C308.866 144.917 306.724 146.566 305.838 146.677C297.666 147.589 289.437 147.886 281.22 147.563L256.958 146.923C252.158 146.726 247.332 146.32 242.581 145.692C242.138 145.692 239.258 145.532 236.55 145.114C233.842 144.695 231.281 144.092 231.38 143.255C231.614 141.569 232.524 140.252 233.411 140.338Z" fill="#00CCB3"/>
<path d="M243.233 129.677L246.545 130.083C247.615 130.219 248.686 130.329 249.757 130.428C251.915 130.625 254.07 130.76 256.22 130.834C258.374 130.908 260.54 130.834 262.793 130.834H269.452C273.871 130.834 278.401 130.834 282.709 130.834C287.046 130.733 291.373 130.388 295.671 129.8C296.391 129.868 297.066 130.18 297.584 130.684C298.103 131.188 298.434 131.853 298.523 132.571C298.612 133.289 298.454 134.015 298.074 134.63C297.694 135.246 297.115 135.713 296.434 135.955C290.407 136.57 284.341 136.73 278.29 136.435L260.466 135.807C256.934 135.598 253.376 135.241 249.88 134.699C249.203 134.699 241.449 134.293 241.682 132.607C241.916 130.92 242.593 129.591 243.233 129.677Z" fill="#00CCB3"/>
<path d="M348.571 175.829L294.983 161.71C290.25 160.463 285.402 163.289 284.155 168.023L284.152 168.034C282.905 172.768 285.731 177.616 290.464 178.863L344.052 192.981C348.785 194.228 353.633 191.402 354.88 186.669L354.883 186.657C356.13 181.924 353.304 177.076 348.571 175.829Z" fill="#88E766"/>
<path d="M351.708 170.395L298.121 156.276C293.388 155.029 288.54 157.856 287.293 162.589L287.29 162.601C286.043 167.334 288.869 172.182 293.602 173.429L347.189 187.547C351.923 188.794 356.771 185.968 358.018 181.235L358.021 181.223C359.268 176.49 356.442 171.642 351.708 170.395Z" fill="#E7FAE0"/>
<path d="M350.312 185.303C351.772 185.1 353.118 184.4 354.123 183.321C355.128 182.242 355.731 180.849 355.829 179.378C355.927 177.907 355.515 176.446 354.663 175.243C353.81 174.04 352.569 173.167 351.149 172.772L346.471 171.541L337.067 169.079L299.438 159.17L298.207 158.85L297.653 158.715L297.222 158.616C296.645 158.516 296.057 158.495 295.474 158.555C294.3 158.651 293.178 159.078 292.237 159.786C291.295 160.492 290.566 161.445 290.132 162.54C289.698 163.634 289.574 164.828 289.775 165.988C289.977 167.148 290.495 168.23 291.272 169.115C292.05 169.999 293.057 170.651 294.182 170.999L303.475 173.461L341.166 183.419C343.012 183.912 347.567 186.25 347.222 187.568C346.877 188.885 341.757 188.675 339.91 188.183L314.812 181.314L302.269 177.88L295.991 176.157L294.428 175.738C293.898 175.578 293.431 175.48 292.754 175.246C291.493 174.816 290.321 174.162 289.295 173.313C287.248 171.617 285.902 169.223 285.518 166.592C285.134 163.962 285.738 161.282 287.215 159.072C288.298 157.432 289.819 156.127 291.604 155.305C293.39 154.483 295.37 154.176 297.32 154.419C297.644 154.447 297.965 154.501 298.281 154.579C298.601 154.579 298.921 154.714 299.167 154.788L300.73 155.219L325.816 162.087L340.587 166.248L347.973 168.328L351.666 169.375C353.005 169.726 354.26 170.341 355.358 171.184C356.726 172.215 357.807 173.58 358.497 175.148C359.115 176.559 359.386 178.099 359.285 179.637C359.184 181.175 358.716 182.666 357.919 183.986C357.171 185.24 356.138 186.3 354.904 187.081C353.67 187.861 352.27 188.34 350.816 188.478C348.465 188.626 347.124 187.838 347.197 187.568C347.409 186.926 347.846 186.384 348.428 186.041C348.987 185.647 349.633 185.393 350.312 185.303Z" fill="#00CCB3"/>
<path d="M256.5 168.822L201.089 168.068C196.195 168.001 192.174 171.915 192.107 176.809L192.107 176.821C192.04 181.716 195.954 185.737 200.848 185.804L256.259 186.558C261.153 186.625 265.175 182.711 265.241 177.817L265.241 177.805C265.308 172.911 261.395 168.889 256.5 168.822Z" fill="#88E766"/>
<path d="M256.595 162.78L201.184 162.026C196.289 161.959 192.268 165.873 192.201 170.767L192.201 170.779C192.134 175.674 196.048 179.695 200.942 179.762L256.353 180.516C261.247 180.583 265.269 176.669 265.336 171.775L265.336 171.763C265.402 166.869 261.489 162.847 256.595 162.78Z" fill="#E7FAE0"/>
<path d="M259.482 177.265C260.831 176.706 261.948 175.702 262.648 174.42C263.348 173.138 263.589 171.656 263.33 170.218C263.071 168.781 262.329 167.475 261.226 166.518C260.123 165.561 258.725 165.01 257.266 164.956L252.428 164.882L242.692 164.71L203.795 164.18H202.564C202.379 164.18 202.133 164.18 201.985 164.18H201.542C200.958 164.218 200.382 164.339 199.831 164.537C198.72 164.925 197.74 165.616 197 166.531C196.256 167.444 195.779 168.545 195.622 169.712C195.464 170.879 195.632 172.067 196.107 173.144C196.582 174.221 197.346 175.147 198.314 175.817C199.281 176.488 200.416 176.878 201.591 176.945L211.205 177.093L250.114 177.622C252.022 177.622 257.008 178.853 256.995 180.182C256.983 181.512 251.948 182.57 250.04 182.546L224.031 181.943L211.033 181.635L204.533 181.487H202.908C202.355 181.487 201.875 181.487 201.161 181.413C199.835 181.311 198.541 180.96 197.345 180.379C194.945 179.231 193.058 177.233 192.048 174.772C191.038 172.311 190.978 169.563 191.879 167.061C192.768 164.578 194.549 162.515 196.877 161.275C198.023 160.655 199.276 160.259 200.57 160.106C200.887 160.051 201.208 160.026 201.53 160.032C201.862 160.032 202.182 160.032 202.441 160.032H204.066L230.075 160.635L245.388 161.115L253.044 161.349L256.872 161.472C258.278 161.487 259.667 161.779 260.959 162.334C262.532 162.997 263.907 164.057 264.947 165.411C265.888 166.632 266.524 168.06 266.8 169.576C267.076 171.092 266.985 172.652 266.535 174.126C266.11 175.524 265.363 176.802 264.354 177.858C263.345 178.914 262.102 179.719 260.725 180.207C258.485 180.921 256.958 180.49 257.032 180.207C257.079 179.529 257.378 178.892 257.869 178.422C258.311 177.918 258.862 177.522 259.482 177.265Z" fill="#00CCB3"/>
<path d="M186.07 319.584C182.52 313.257 179.782 306.507 177.921 299.495C177.847 299.224 177.921 298.486 178.278 298.4C178.635 298.314 179.041 298.917 179.115 299.175C180.254 303.812 181.79 308.342 183.706 312.715C184.248 314.02 184.814 315.313 185.43 316.593C185.528 316.839 187.128 319.51 186.833 319.67C186.777 319.715 186.713 319.748 186.645 319.768C186.576 319.788 186.504 319.794 186.433 319.786C186.362 319.778 186.294 319.756 186.231 319.721C186.169 319.686 186.114 319.64 186.07 319.584Z" fill="white"/>
<path opacity="0.45" d="M193.886 333.371C191.202 330.348 188.982 326.942 187.301 323.265C187.277 323.123 187.297 322.978 187.359 322.848C187.42 322.718 187.52 322.61 187.645 322.539C187.782 322.495 187.929 322.493 188.067 322.532C188.205 322.572 188.328 322.651 188.421 322.761C189.419 325.184 190.656 327.501 192.114 329.678C192.532 330.331 192.963 330.971 193.418 331.599C193.505 331.722 194.649 332.94 194.452 333.162C194.255 333.383 193.985 333.482 193.886 333.371Z" fill="white"/>
<path d="M342.237 43.5873C331.632 34.7593 318.767 29.0756 305.1 27.1791C304.595 27.1175 303.315 26.6744 303.352 26.3297C303.389 25.9851 304.755 25.8989 305.26 25.9605C314.492 27.3261 323.388 30.4028 331.491 35.0324C333.859 36.3989 336.149 37.8989 338.347 39.5252C338.569 39.6606 339.886 40.6084 341.117 41.5809C342.347 42.5533 343.443 43.5873 343.332 43.7104C343.221 43.8335 342.618 43.9196 342.237 43.5873Z" fill="#00CCB3"/>
<path d="M351.517 55.5643C348.632 52.3344 345.319 49.5141 341.67 47.1817C337.977 44.7937 334.161 42.7381 330.272 40.7071C329.989 40.5594 329.361 39.9193 329.521 39.6239C329.681 39.3285 330.555 39.4639 330.838 39.6239C336.103 42.3014 341.127 45.4271 345.855 48.9666C347.211 50.0554 348.505 51.2183 349.733 52.4501C349.856 52.5486 350.619 53.2625 351.296 54.001C351.973 54.7396 352.527 55.5028 352.404 55.6135C352.343 55.67 352.272 55.7137 352.194 55.7419C352.116 55.7701 352.033 55.7823 351.95 55.7777C351.867 55.7731 351.786 55.7518 351.712 55.7152C351.638 55.6785 351.571 55.6272 351.517 55.5643Z" fill="#00CCB3"/>
<path d="M280.235 88.9589L230.801 89.4513C230.198 89.4513 228.598 88.6512 228.586 87.6295C228.573 86.6079 230.149 85.7709 230.764 85.7585L263.827 86.1771L273.563 86.4848C274.167 86.4848 281.306 86.0786 281.318 87.1002C281.331 88.1219 280.85 88.9466 280.235 88.9589Z" fill="#00CCB3"/>
<path d="M301.776 81.844C295.521 82.3425 289.235 82.3425 282.98 81.844C276.9 81.3212 270.788 81.2718 264.701 81.6962C264.265 81.6224 263.863 81.4181 263.546 81.1103C263.23 80.8026 263.014 80.406 262.928 79.973C262.947 79.5302 263.103 79.1041 263.374 78.7536C263.645 78.4031 264.018 78.1453 264.442 78.0158C268.635 77.827 272.836 77.8845 277.022 78.1881C281.207 78.4835 285.294 79.0005 289.331 79.259C291.793 79.4806 294.144 79.5914 296.569 79.6529C296.803 79.6529 298.231 79.4929 299.622 79.456C301.013 79.419 302.355 79.456 302.404 79.973C302.478 80.9577 302.17 81.807 301.776 81.844Z" fill="#00CCB3"/>
<path opacity="0.5" d="M388.643 129.419C381.482 128.84 374.287 128.84 367.126 129.419C366.868 129.419 366.08 128.397 365.895 127.043C365.711 125.689 366.4 124.581 366.671 124.508C371.643 124.447 376.615 124.653 381.565 125.123C383.005 125.345 384.458 125.578 385.885 125.849C386.156 125.849 389.381 125.64 389.27 127.006C389.16 128.373 388.901 129.444 388.643 129.419Z" fill="white"/>
<path opacity="0.5" d="M389.43 132.951H380.887C380.777 132.951 380.506 132.397 380.506 131.72C380.506 131.043 380.777 130.49 380.887 130.49L386.599 130.994L388.273 131.265C388.384 131.265 389.615 131.043 389.615 131.72C389.615 132.397 389.529 132.951 389.43 132.951Z" fill="white"/>
<path d="M270.621 264.303C269.805 264.303 269.022 263.979 268.445 263.402C267.868 262.825 267.544 262.042 267.544 261.226V235.795C267.544 234.979 267.868 234.196 268.445 233.619C269.022 233.042 269.805 232.718 270.621 232.718C271.437 232.718 272.22 233.042 272.797 233.619C273.374 234.196 273.699 234.979 273.699 235.795V261.226C273.699 262.042 273.374 262.825 272.797 263.402C272.22 263.979 271.437 264.303 270.621 264.303Z" fill="#60DFCF"/>
<path d="M230.605 245.95C246.111 245.95 258.682 233.379 258.682 217.873C258.682 202.366 246.111 189.795 230.605 189.795C215.098 189.795 202.527 202.366 202.527 217.873C202.527 233.379 215.098 245.95 230.605 245.95Z" fill="#CCF5F0"/>
<path d="M228.979 200.616H228.967C225.126 200.616 222.012 203.729 222.012 207.57V228.447C222.012 232.288 225.126 235.402 228.967 235.402H228.979C232.82 235.402 235.934 232.288 235.934 228.447V207.57C235.934 203.729 232.82 200.616 228.979 200.616Z" fill="#425366"/>
<path d="M235.405 218.452C239.015 218.452 241.941 215.525 241.941 211.916C241.941 208.306 239.015 205.379 235.405 205.379C231.795 205.379 228.869 208.306 228.869 211.916C228.869 215.525 231.795 218.452 235.405 218.452Z" fill="white"/>
<path d="M310.7 245.95C326.207 245.95 338.778 233.379 338.778 217.873C338.778 202.366 326.207 189.795 310.7 189.795C295.194 189.795 282.623 202.366 282.623 217.873C282.623 233.379 295.194 245.95 310.7 245.95Z" fill="#CCF5F0"/>
<path d="M310.996 200.616H310.984C307.143 200.616 304.029 203.729 304.029 207.57V228.447C304.029 232.288 307.143 235.402 310.984 235.402H310.996C314.837 235.402 317.951 232.288 317.951 228.447V207.57C317.951 203.729 314.837 200.616 310.996 200.616Z" fill="#425366"/>
<path d="M317.421 218.452C321.031 218.452 323.957 215.525 323.957 211.916C323.957 208.306 321.031 205.379 317.421 205.379C313.811 205.379 310.885 208.306 310.885 211.916C310.885 215.525 313.811 218.452 317.421 218.452Z" fill="white"/>
<path d="M338.778 218.476C338.856 222.212 338.188 225.926 336.812 229.4C335.437 232.874 333.382 236.039 330.767 238.709C328.153 241.379 325.032 243.5 321.587 244.948C318.142 246.396 314.443 247.141 310.707 247.141C306.97 247.141 303.271 246.396 299.826 244.948C296.382 243.5 293.261 241.379 290.646 238.709C288.032 236.039 285.977 232.874 284.601 229.4C283.226 225.926 282.557 222.212 282.636 218.476C282.633 217.625 282.674 216.775 282.759 215.928C283.397 222.899 286.618 229.38 291.788 234.099C296.959 238.818 303.706 241.434 310.707 241.434C317.707 241.434 324.455 238.818 329.625 234.099C334.796 229.38 338.016 222.899 338.655 215.928C338.739 216.775 338.78 217.625 338.778 218.476Z" fill="white"/>
<path d="M258.694 220.938C258.694 236.448 246.126 246.554 230.616 246.554C226.93 246.554 223.279 245.827 219.873 244.416C216.468 243.005 213.373 240.937 210.767 238.329C208.161 235.722 206.094 232.627 204.684 229.22C203.274 225.814 202.55 222.163 202.551 218.476C202.55 219.27 202.591 220.063 202.674 220.852C203.967 235.155 215.981 241.433 230.616 241.433C245.252 241.433 257.278 235.155 258.571 220.852C258.694 221.689 258.694 220.077 258.694 220.938Z" fill="white"/>
<path d="M285.774 221.455C286.082 226.071 287.662 230.513 290.339 234.286C293.015 238.06 296.684 241.019 300.939 242.836C303.772 244.031 306.803 244.686 309.876 244.769C316.071 244.973 322.121 242.867 326.85 238.86C331.609 234.875 334.687 229.238 335.467 223.08C335.689 222.373 336.053 221.72 336.538 221.16C336.799 220.792 337.135 220.483 337.522 220.252C337.91 220.021 338.342 219.873 338.79 219.818C339.245 219.873 339.678 220.046 340.045 220.32C340.412 220.595 340.701 220.96 340.883 221.381C341.363 222.11 341.604 222.971 341.572 223.843C340.825 228.881 338.84 233.656 335.793 237.737C332.747 241.819 328.735 245.081 324.118 247.231C319.601 249.327 314.636 250.274 309.664 249.988C304.693 249.703 299.869 248.193 295.622 245.593C293.189 244.054 291.003 242.158 289.135 239.968C287.262 237.827 285.722 235.416 284.568 232.816C283.423 230.718 282.593 228.461 282.106 226.12C281.478 222.92 281.798 219.781 282.611 219.818C284.322 219.83 285.774 220.569 285.774 221.455Z" fill="#00CCB3"/>
<path d="M204.927 220.999C205.234 225.614 206.815 230.053 209.494 233.822C212.174 237.592 215.847 240.543 220.105 242.349C224.363 244.154 229.038 244.742 233.611 244.048C238.183 243.354 242.473 241.405 246.003 238.417C250.758 234.423 253.834 228.784 254.619 222.624C254.841 221.918 255.206 221.264 255.69 220.704C255.952 220.336 256.287 220.027 256.675 219.796C257.063 219.565 257.495 219.417 257.943 219.362C258.397 219.421 258.828 219.595 259.194 219.869C259.561 220.143 259.851 220.507 260.036 220.925C260.512 221.656 260.753 222.515 260.725 223.387C259.969 228.415 257.979 233.176 254.933 237.247C251.887 241.317 247.88 244.57 243.27 246.713C238.758 248.816 233.796 249.77 228.826 249.488C223.856 249.207 219.033 247.7 214.787 245.101C212.331 243.583 210.119 241.703 208.226 239.525C206.35 237.382 204.81 234.966 203.659 232.361C202.514 230.262 201.684 228.006 201.197 225.665C200.57 222.464 200.89 219.338 201.702 219.362C203.462 219.387 204.89 220.113 204.927 220.999Z" fill="#00CCB3"/>
<path d="M402.724 142.467H395.339V145.545H402.724V142.467Z" fill="#00CCB3"/>
<path d="M402.712 209.651H395.327V203.927H402.712V209.651ZM402.712 200.493H395.327V194.769H402.712V200.493ZM402.712 191.335H395.327V185.611H402.712V191.335ZM402.712 182.177H395.327V176.453H402.712V182.177ZM402.712 173.019H395.327V167.295H402.712V173.019ZM402.712 163.861H395.327V158.137H402.712V163.861ZM402.712 154.703H395.327V148.954H402.712V154.703Z" fill="#00CCB3"/>
<path d="M402.724 213.085H395.339V216.162H402.724V213.085Z" fill="#00CCB3"/>
<path d="M222.935 271.898H317.187C318.558 271.898 319.873 272.443 320.843 273.413C321.812 274.382 322.357 275.697 322.357 277.068V308.58C322.357 320.861 317.478 332.64 308.794 341.324C300.11 350.008 288.331 354.887 276.05 354.887C260.592 354.887 245.767 348.747 234.837 337.816C223.906 326.886 217.766 312.061 217.766 296.603V277.068C217.766 275.697 218.31 274.382 219.28 273.413C220.249 272.443 221.564 271.898 222.935 271.898Z" fill="#88E766"/>
<path d="M277.564 347.514C279.284 347.514 280.678 346.119 280.678 344.399C280.678 342.679 279.284 341.285 277.564 341.285C275.844 341.285 274.45 342.679 274.45 344.399C274.45 346.119 275.844 347.514 277.564 347.514Z" fill="#88E766"/>
<path d="M250.631 345.901C250.429 345.9 250.231 345.85 250.053 345.754C235.959 338.257 228.819 329.727 225.459 316.359C225.377 316.043 225.425 315.707 225.591 315.425C225.757 315.143 226.029 314.939 226.345 314.858C226.662 314.776 226.998 314.824 227.28 314.99C227.561 315.156 227.765 315.427 227.847 315.744C231.097 328.533 237.694 336.35 251.234 343.612C251.482 343.739 251.679 343.945 251.794 344.198C251.909 344.451 251.935 344.735 251.868 345.005C251.801 345.274 251.645 345.513 251.425 345.683C251.205 345.852 250.934 345.942 250.656 345.938L250.631 345.901Z" fill="#88E766"/>
<path d="M309.9 271.898V288.233C309.9 290.535 307.438 292.406 304.349 292.406H234.42C231.355 292.406 228.881 290.535 228.881 288.233V276.084C228.881 273.769 231.343 271.898 234.42 271.898H309.9Z" fill="white"/>
<path d="M311.475 273.056H228.684V279.801H311.475V273.056Z" fill="#B8F1A3"/>
<path d="M305.949 294.867H234.556C230.001 294.867 226.432 291.95 226.432 288.233V271.898H231.355V288.233C231.355 288.934 232.586 289.944 234.556 289.944H305.949C307.869 289.944 309.15 288.91 309.15 288.233V271.898H314.073V288.233C314.086 291.95 310.504 294.867 305.949 294.867Z" fill="#00CCB3"/>
<path d="M174.462 131.486C168.921 137.836 164.867 145.343 162.596 153.458C162.34 153.747 162.008 153.958 161.638 154.067C161.268 154.175 160.875 154.178 160.503 154.074C159.519 153.828 158.94 152.843 159.039 152.461C160.879 146.796 163.56 141.44 166.99 136.57C168.049 135.179 169.145 133.838 170.314 132.557C170.462 132.274 172.677 129.148 173.453 129.837C174.228 130.526 174.671 131.265 174.462 131.486Z" fill="#DCF8D1"/>
<path d="M168.012 129.727C165.467 131.902 163.497 134.671 162.276 137.789C161.638 137.918 160.975 137.845 160.38 137.58C159.42 137.235 158.78 136.595 158.829 136.447C160.007 134.119 161.563 132.002 163.433 130.182C164.024 129.702 164.664 129.234 165.255 128.816C165.329 128.717 166.338 127.363 166.99 128.163C167.643 128.963 168.098 129.653 168.012 129.727Z" fill="#DCF8D1"/>
<path d="M315.004 400.556L225.998 401.053L226.817 547.838L315.824 547.341L315.004 400.556Z" fill="#88E766"/>
<path d="M289.627 449.275C294.78 449.275 298.958 445.097 298.958 439.944C298.958 434.791 294.78 430.614 289.627 430.614C284.474 430.614 280.297 434.791 280.297 439.944C280.297 445.097 284.474 449.275 289.627 449.275Z" fill="#B8F1A3"/>
<path d="M277.662 430.158C279.96 430.158 281.822 428.296 281.822 425.998C281.822 423.7 279.96 421.837 277.662 421.837C275.364 421.837 273.501 423.7 273.501 425.998C273.501 428.296 275.364 430.158 277.662 430.158Z" fill="#B8F1A3"/>
<path d="M308.36 553.984L239.576 554.672L239.674 564.495L308.458 563.807L308.36 553.984Z" fill="#EBA42C"/>
<path d="M305.937 554.05H237.153V563.873H305.937V554.05Z" fill="#EBA42C"/>
<path d="M304.915 555.626H236.131V563.713H304.915V555.626Z" fill="#88E766"/>
<path d="M304.915 549.902H236.131V555.614H304.915V549.902Z" fill="#B8F1A3"/>
<path d="M306.195 546.825H236.513V551.749H306.195V546.825Z" fill="#00CCB3"/>
<path d="M306.589 562.495H236.131V567.418H306.589V562.495Z" fill="#00CCB3"/>
<path d="M263.211 550.911H258.288V566.716H263.211V550.911Z" fill="#00CCB3"/>
<path d="M282.229 549.681H277.306V566.717H282.229V549.681Z" fill="#00CCB3"/>
<path d="M272.345 559.368C273.249 559.368 273.982 558.635 273.982 557.731C273.982 556.827 273.249 556.094 272.345 556.094C271.44 556.094 270.708 556.827 270.708 557.731C270.708 558.635 271.44 559.368 272.345 559.368Z" fill="#00CCB3"/>
<path d="M227.342 539.426H196.298V435.34C196.302 429.185 198.749 423.283 203.102 418.932C207.456 414.581 213.359 412.137 219.514 412.137H227.342V539.426Z" fill="white"/>
<path d="M220.375 539.648V565.572H219.772C206.232 565.572 195.252 553.964 195.252 539.648H220.375Z" fill="#E7FAE0"/>
<path d="M237.768 569.843H224.339C223.866 569.843 223.398 569.75 222.961 569.569C222.524 569.387 222.127 569.121 221.793 568.786C221.459 568.451 221.195 568.054 221.015 567.616C220.835 567.179 220.743 566.71 220.745 566.237V416.384C220.745 410.864 222.938 405.57 226.841 401.666C230.745 397.762 236.039 395.569 241.56 395.569L245.154 562.347C245.169 563.326 244.988 564.299 244.624 565.207C244.259 566.116 243.718 566.944 243.03 567.641C242.343 568.339 241.524 568.893 240.62 569.271C239.717 569.649 238.748 569.843 237.768 569.843Z" fill="white"/>
<path d="M310.392 535.463C301.394 535.463 294.107 519.079 294.107 498.855L292.79 405.65L310.392 399.052V535.463Z" fill="#B8F1A3"/>
<path d="M237.375 572.81H223.958C222.353 572.81 220.815 572.173 219.68 571.04C218.544 569.907 217.905 568.37 217.901 566.766V416.889C217.911 410.718 220.367 404.803 224.73 400.44C229.093 396.077 235.008 393.622 241.178 393.612H243.64L247.222 562.802C247.243 564.109 247.004 565.406 246.519 566.62C246.033 567.833 245.311 568.938 244.395 569.869C243.478 570.8 242.386 571.54 241.18 572.045C239.975 572.55 238.681 572.81 237.375 572.81ZM238.778 398.696C234.358 399.272 230.298 401.435 227.354 404.782C224.41 408.129 222.783 412.431 222.776 416.889V566.766C222.779 567.064 222.9 567.349 223.112 567.559C223.324 567.768 223.61 567.886 223.908 567.886H237.325C238.631 567.886 239.884 567.367 240.807 566.444C241.73 565.52 242.249 564.268 242.249 562.962L238.778 398.696Z" fill="#00CCB3"/>
<path d="M220.363 568.968H219.772C204.89 568.968 192.79 556.241 192.79 540.583V513.392H192.864C192.618 511.054 192.63 505.01 192.68 487.395C192.68 474.483 192.79 461.607 192.79 461.607V438.06C192.79 422.403 204.89 409.675 219.772 409.675H220.363V414.598H219.772C207.611 414.598 197.714 425.123 197.714 438.06V461.607C197.616 479.936 197.517 507.151 197.653 512.297L197.714 512.358V540.571C197.714 553.508 207.561 564.032 219.772 564.032H220.363V568.968Z" fill="#00CCB3"/>
<path d="M220.363 538.123H195.252V543.046H220.363V538.123Z" fill="#00CCB3"/>
<path d="M302.256 395.556C302.256 403.668 288.925 410.229 272.48 410.229C256.035 410.229 242.692 403.668 242.692 395.556C242.692 391.863 245.449 388.528 250.004 385.955C255.469 389.045 263.544 390.99 272.456 390.99C281.367 390.99 289.455 389.045 294.908 385.955C299.499 388.528 302.256 391.888 302.256 395.556Z" fill="#B8F1A3"/>
<path d="M302.712 394.437C302.712 402.536 289.381 409.085 272.936 409.085C271.852 409.085 270.794 409.085 269.748 408.999C269.755 408.671 269.801 408.344 269.883 408.026C270.162 407.062 270.643 406.167 271.295 405.403C271.946 404.639 272.753 404.023 273.662 403.595C275.485 402.747 277.408 402.135 279.386 401.773C282.586 401.138 285.673 400.026 288.544 398.474C291.427 396.891 293.62 394.295 294.698 391.187C295.272 389.221 295.294 387.134 294.76 385.156C294.969 385.045 295.178 384.947 295.375 384.823C299.954 387.396 302.712 390.757 302.712 394.437Z" fill="#88E766"/>
<path d="M272.886 412.113C254.816 412.113 240.661 404.592 240.661 394.99C240.661 390.522 243.701 386.374 249.277 383.235L250.508 382.558L251.739 383.247C257.044 386.239 264.774 387.962 272.985 387.962C281.195 387.962 288.987 386.239 294.218 383.247L295.449 382.558L296.68 383.235C302.219 386.349 305.296 390.522 305.296 394.99C305.124 404.592 290.956 412.113 272.886 412.113ZM250.508 388.22C247.32 390.264 245.584 392.639 245.584 394.99C245.584 402.179 259.974 407.189 272.886 407.189C285.799 407.189 300.2 402.179 300.2 394.99C300.2 392.639 298.452 390.264 295.277 388.208C289.368 391.187 281.318 392.886 272.898 392.886C264.479 392.886 256.429 391.187 250.508 388.22Z" fill="#00CCB3"/>
<path d="M308.423 567.307H321.84C322.311 567.307 322.778 567.214 323.213 567.033C323.649 566.852 324.044 566.588 324.377 566.254C324.71 565.92 324.973 565.523 325.153 565.087C325.332 564.651 325.423 564.184 325.422 563.713V413.848C325.422 408.328 323.229 403.033 319.325 399.13C315.422 395.226 310.127 393.033 304.607 393.033L301.074 559.811C301.059 560.787 301.238 561.756 301.601 562.663C301.963 563.569 302.501 564.395 303.185 565.092C303.868 565.789 304.683 566.344 305.582 566.724C306.481 567.104 307.447 567.302 308.423 567.307Z" fill="white"/>
<path d="M319.354 408.58C327.587 408.58 335.483 411.85 341.305 417.672C347.127 423.494 350.397 431.39 350.397 439.623V535.869H319.354V408.58Z" fill="white"/>
<path d="M332.143 409.097H324.376V537.839H332.143V409.097Z" fill="#88E766"/>
<path d="M323.933 537.088V563.011H324.536C338.076 563.011 349.056 551.404 349.056 537.088H323.933Z" fill="#E7FAE0"/>
<path d="M331.319 538.429V563.688C329.513 564.128 327.662 564.351 325.804 564.353H325.164V538.429H331.319Z" fill="#88E766"/>
<path d="M323.231 544.597V562.113C323.233 562.585 323.141 563.052 322.962 563.488C322.783 563.924 322.519 564.32 322.186 564.654C321.853 564.988 321.458 565.253 321.023 565.434C320.587 565.614 320.121 565.707 319.649 565.707H306.22C305.091 565.711 303.977 565.451 302.967 564.949C301.956 564.447 301.076 563.716 300.397 562.815C305.585 562.399 310.531 560.442 314.599 557.196C318.667 553.95 321.673 549.563 323.231 544.597Z" fill="#B8F1A3"/>
<path d="M314.614 557.645C316.64 557.645 318.283 556.002 318.283 553.977C318.283 551.951 316.64 550.308 314.614 550.308C312.589 550.308 310.946 551.951 310.946 553.977C310.946 556.002 312.589 557.645 314.614 557.645Z" fill="#B8F1A3"/>
<path d="M309.913 550.136C310.817 550.136 311.55 549.403 311.55 548.499C311.55 547.595 310.817 546.862 309.913 546.862C309.008 546.862 308.275 547.595 308.275 548.499C308.275 549.403 309.008 550.136 309.913 550.136Z" fill="#B8F1A3"/>
<path d="M350.952 456.34H347.259V460.648H350.952V456.34Z" fill="#00CCB3"/>
<path d="M351.013 484.995H347.32V477.893H351.013V484.995ZM351.013 472.834H347.32V465.731H351.013V472.834Z" fill="#00CCB3"/>
<path d="M350.952 490.03H347.259V494.338H350.952V490.03Z" fill="#00CCB3"/>
<path d="M320.782 569.769H307.365C306.058 569.77 304.764 569.51 303.559 569.005C302.354 568.5 301.261 567.76 300.344 566.829C299.428 565.897 298.706 564.793 298.221 563.58C297.735 562.366 297.496 561.069 297.517 559.762L301.099 390.572H303.561C309.733 390.578 315.649 393.033 320.013 397.397C324.377 401.76 326.831 407.677 326.838 413.849V563.775C326.819 565.369 326.172 566.892 325.039 568.014C323.906 569.136 322.376 569.766 320.782 569.769ZM306.011 395.655L302.54 559.86C302.531 560.512 302.653 561.159 302.897 561.764C303.14 562.368 303.502 562.918 303.96 563.382C304.418 563.846 304.963 564.214 305.565 564.465C306.166 564.716 306.811 564.846 307.463 564.846H320.88C321.181 564.846 321.469 564.726 321.681 564.514C321.893 564.302 322.013 564.014 322.013 563.713V413.849C322.004 409.384 320.37 405.075 317.416 401.727C314.462 398.379 310.39 396.221 305.962 395.655H306.011Z" fill="#00CCB3"/>
<path d="M324.967 565.928H324.376V561.005H324.967C337.128 561.005 347.025 550.48 347.025 537.543V496.812H351.949V537.543C351.949 553.201 339.836 565.928 324.967 565.928Z" fill="#00CCB3"/>
<path d="M351.949 453.324H347.025V435.021C347.025 422.084 337.178 411.559 324.967 411.559H324.376V406.635H324.967C339.836 406.635 351.949 419.363 351.949 435.021V453.324Z" fill="#00CCB3"/>
<path d="M349.487 535.082H324.376V540.005H349.487V535.082Z" fill="#00CCB3"/>
<path d="M195.732 511.682C195.411 511.684 195.102 511.561 194.87 511.338C194.755 511.223 194.664 511.087 194.601 510.937C194.539 510.787 194.506 510.626 194.506 510.464C194.506 510.301 194.539 510.14 194.601 509.99C194.664 509.84 194.755 509.704 194.87 509.59L209.986 494.092C210.215 493.859 210.527 493.726 210.853 493.722C211.18 493.719 211.495 493.845 211.728 494.074C211.961 494.302 212.094 494.614 212.098 494.941C212.101 495.268 211.975 495.582 211.746 495.816L196.606 511.313C196.492 511.429 196.356 511.522 196.206 511.585C196.056 511.649 195.895 511.682 195.732 511.682Z" fill="#00CCB3"/>
<path d="M201.887 497.44C201.565 497.441 201.256 497.318 201.025 497.095C200.796 496.864 200.667 496.552 200.667 496.227C200.667 495.902 200.796 495.59 201.025 495.359L209.986 486.004C210.098 485.887 210.233 485.793 210.381 485.728C210.53 485.663 210.69 485.627 210.852 485.624C211.015 485.62 211.176 485.649 211.327 485.708C211.479 485.767 211.617 485.855 211.734 485.967C211.851 486.08 211.945 486.214 212.01 486.363C212.076 486.511 212.111 486.671 212.114 486.834C212.118 486.996 212.089 487.157 212.03 487.309C211.971 487.46 211.883 487.598 211.771 487.715L202.81 497.058C202.691 497.183 202.548 497.281 202.389 497.347C202.23 497.412 202.059 497.444 201.887 497.44Z" fill="#00CCB3"/>
<path d="M270.068 357.337C255.55 357.324 241.63 351.551 231.363 341.287C221.096 331.022 215.32 317.103 215.304 302.585V277.388C215.307 275.28 216.146 273.26 217.637 271.769C219.127 270.279 221.148 269.44 223.256 269.437H316.88C318.986 269.443 321.003 270.283 322.491 271.773C323.979 273.264 324.816 275.282 324.819 277.388V302.585C324.803 317.101 319.029 331.018 308.765 341.282C298.501 351.547 284.584 357.32 270.068 357.337ZM223.293 274.36C222.49 274.36 221.72 274.679 221.152 275.247C220.584 275.815 220.265 276.585 220.265 277.388V302.585C220.265 315.807 225.517 328.487 234.866 337.836C244.215 347.185 256.895 352.438 270.117 352.438C283.339 352.438 296.019 347.185 305.368 337.836C314.717 328.487 319.969 315.807 319.969 302.585V277.388C319.969 276.587 319.652 275.819 319.087 275.251C318.522 274.684 317.755 274.363 316.954 274.36H223.293Z" fill="#00CCB3"/>
<path d="M191.646 140.547C189.245 144.817 187.187 149.27 185.491 153.866C184.605 156.167 183.755 158.494 182.918 160.82C182.042 163.051 181.394 165.364 180.986 167.726C180.986 168.058 180.296 168.895 179.619 168.858C178.942 168.821 178.487 167.763 178.549 167.381C179.264 164.056 180.32 160.814 181.7 157.706C182.931 154.616 184.162 151.551 185.54 148.487C186.361 146.714 187.259 144.97 188.236 143.255C188.359 142.91 190.267 138.996 190.87 139.365C191.473 139.735 191.818 140.239 191.646 140.547Z" fill="white"/>
<path opacity="0.8" d="M176.555 178.668L177.33 171.628C177.709 171.432 178.143 171.372 178.561 171.455C179.01 171.456 179.445 171.613 179.792 171.898L178.77 176.551L178.352 177.905C178.352 177.991 178.45 179.025 177.773 178.952C177.351 178.954 176.933 178.857 176.555 178.668Z" fill="white"/>
<path d="M196.557 122.28C187.152 122.28 177.874 120.111 169.445 115.941C161.015 111.771 153.661 105.713 147.955 98.2374C142.249 90.7619 138.344 82.0708 136.544 72.8401C134.744 63.6093 135.098 54.0878 137.578 45.0162C140.059 35.9446 144.598 27.5674 150.844 20.5362C157.089 13.5051 164.873 8.0095 173.589 4.47699C182.305 0.944477 191.718 -0.529744 201.097 0.168995C210.475 0.867735 219.566 3.7206 227.662 8.50568H283.891C310.974 8.548 336.936 19.3255 356.087 38.4763C375.237 57.6271 386.015 83.5889 386.057 110.672C386.057 111.488 385.733 112.271 385.156 112.848C384.579 113.425 383.796 113.75 382.98 113.75H227.662C218.247 119.333 207.503 122.28 196.557 122.28ZM196.557 6.16693C188.066 6.16685 179.691 8.13306 172.087 11.9115C164.484 15.6899 157.859 21.1778 152.731 27.9452C147.603 34.7126 144.112 42.5755 142.532 50.9177C140.952 59.26 141.325 67.8549 143.622 76.0289C145.919 84.2028 150.078 91.7337 155.773 98.0314C161.467 104.329 168.543 109.222 176.446 112.328C184.348 115.433 192.862 116.666 201.321 115.931C209.779 115.195 217.953 112.51 225.2 108.087C225.686 107.792 226.244 107.634 226.813 107.632H379.89C379.058 82.7129 368.581 59.091 350.669 41.7467C332.758 24.4024 308.811 14.691 283.878 14.6603H226.813C226.245 14.6624 225.687 14.5091 225.2 14.2172C216.578 8.94356 206.664 6.15745 196.557 6.16693Z" fill="#00CCB3"/>
</svg>
