<svg width="610" height="480" viewBox="0 0 610 480" fill="none" xmlns="http://www.w3.org/2000/svg">
<path d="M570.206 91.6013C529.528 49.532 466.046 43.7286 419.075 74.1898C405.711 82.8558 389.53 85.7616 374.006 82.2964C337.262 74.0939 298.826 79.696 266.089 97.5592C244.08 109.567 217.273 107.48 196.735 93.077C183.102 83.517 167.27 76.6662 149.874 73.4432C85.3402 61.4864 22.5984 104.518 10.193 169.298C-2.49412 235.546 41.1897 299.213 107.038 311.006C123.127 313.887 139.036 313.401 154.053 310.051C178.423 304.614 203.886 313.705 219.614 333.194C229.541 345.496 241.512 356.476 255.417 365.598C327.276 412.737 423.539 392.386 470.427 320.145C470.477 320.069 470.526 319.991 470.576 319.915C479.164 306.634 492.52 297.165 507.966 294.03C530.494 289.457 551.969 278.343 569.377 260.683C615.21 214.185 615.592 138.539 570.206 91.6013Z" fill="#CCF5F0"/>
<path d="M547 192C546.12 192 545.238 191.664 544.567 190.992L537.008 183.433C535.664 182.089 535.664 179.911 537.008 178.567L544.567 171.008C545.91 169.664 548.09 169.664 549.433 171.008L556.992 178.567C558.336 179.911 558.336 182.089 556.992 183.433L549.433 190.992C548.762 191.664 547.881 192 547 192ZM544.307 181L547 183.693L549.693 181L547 178.307L544.307 181Z" fill="white"/>
<path d="M387 44C386.12 44 385.238 43.6642 384.567 42.9918L377.008 35.433C375.664 34.0897 375.664 31.911 377.007 30.5677L384.567 23.0082C385.212 22.3627 386.087 22 387 22C387.913 22 388.788 22.362 389.433 23.0082L396.993 30.5677C398.336 31.911 398.336 34.0897 396.992 35.433L389.433 42.9918C388.761 43.6642 387.88 44 387 44ZM384.307 33.0003L387 35.6931L389.693 33.0003L387 30.3069L384.307 33.0003Z" fill="#CCF5F0"/>
<path d="M294 362C292.103 362 290.567 360.463 290.567 358.567C290.567 356.288 288.713 354.434 286.433 354.434C284.537 354.434 283 352.897 283 351C283 349.104 284.537 347.567 286.433 347.567C288.712 347.567 290.567 345.713 290.567 343.433C290.567 341.537 292.103 340 294 340C295.896 340 297.433 341.537 297.433 343.433C297.433 345.712 299.287 347.567 301.567 347.567C303.463 347.567 305 349.104 305 351C305 352.897 303.463 354.434 301.567 354.434C299.288 354.434 297.433 356.288 297.433 358.567C297.433 360.463 295.896 362 294 362Z" fill="#00CCB3"/>
<path d="M483.153 130.625C480.391 129.885 478.753 127.048 479.493 124.286C480.383 120.968 478.407 117.544 475.087 116.654C472.326 115.914 470.687 113.077 471.427 110.315C472.167 107.553 475.005 105.915 477.766 106.655C481.085 107.544 484.509 105.568 485.398 102.25C486.138 99.488 488.975 97.8498 491.737 98.5898C494.499 99.3298 496.137 102.167 495.397 104.929C494.508 108.246 496.484 111.67 499.803 112.56C502.565 113.3 504.203 116.137 503.463 118.899C502.723 121.661 499.886 123.299 497.124 122.559C493.805 121.67 490.381 123.646 489.492 126.965C488.752 129.726 485.915 131.365 483.153 130.625Z" fill="#88E766"/>
<path d="M454.049 372.186H456.063C460.107 372.186 463.985 373.791 466.846 376.649C469.707 379.507 471.316 383.384 471.32 387.428V442.976H454.049V372.186Z" fill="white"/>
<path d="M461.159 372.478H456.84V444.09H461.159V372.478Z" fill="#88E766"/>
<path d="M456.625 443.667V458.087H456.963C464.495 458.087 470.598 451.63 470.598 443.667H456.625Z" fill="#E7FAE0"/>
<path d="M460.706 444.42V458.463C459.7 458.713 458.668 458.84 457.631 458.84H457.301V444.42H460.706Z" fill="#88E766"/>
<path d="M471.751 398.757H469.445V401.447H471.751V398.757Z" fill="#00CCB3"/>
<path d="M471.751 406.082H469.445V412.569H471.751V406.082Z" fill="#00CCB3"/>
<path d="M471.751 417.205H469.445V419.895H471.751V417.205Z" fill="#00CCB3"/>
<path d="M457.17 459.885H456.84V456.811H457.17C463.842 456.811 469.276 451.031 469.276 443.929V421.247H472.351V443.906C472.335 452.76 465.541 459.885 457.17 459.885Z" fill="#00CCB3"/>
<path d="M472.335 397.074H469.26V386.897C469.26 379.795 463.826 374.015 457.155 374.015H456.824V370.941H457.155C465.525 370.941 472.335 378.097 472.335 386.897V397.074Z" fill="#00CCB3"/>
<path d="M470.806 442.392H456.84V445.466H470.806V442.392Z" fill="#00CCB3"/>
<path d="M386.134 441.231H370.04V389.403C370.04 385.631 371.537 382.014 374.204 379.346C376.87 376.678 380.487 375.178 384.259 375.176H386.134V441.231Z" fill="white"/>
<path d="M382.522 441.315V454.759H382.207C375.182 454.759 369.486 448.74 369.486 441.315H382.522Z" fill="#E7FAE0"/>
<path d="M382.514 456.78H382.207C374.352 456.78 367.957 450.062 367.957 441.8V427.695H368.018C367.811 425.812 367.842 420.14 367.957 400.84V388.627C367.957 380.364 374.352 373.639 382.207 373.639H382.514V376.713H382.207C376.058 376.713 371.031 382.055 371.031 388.627V400.848C370.977 410.225 370.924 424.152 371.031 427.019V427.058V441.8C371.031 448.364 376.043 453.705 382.207 453.705H382.514V456.78Z" fill="#00CCB3"/>
<path d="M382.522 440.263H369.494V443.337H382.522V440.263Z" fill="#00CCB3"/>
<path d="M450.262 365.494L387.36 365.846L387.891 460.884L450.793 460.532L450.262 365.494Z" fill="#88E766"/>
<path d="M422.075 427.519C425.717 427.519 428.67 424.566 428.67 420.924C428.67 417.282 425.717 414.33 422.075 414.33C418.433 414.33 415.48 417.282 415.48 420.924C415.48 424.566 418.433 427.519 422.075 427.519Z" fill="#B8F1A3"/>
<path d="M413.613 414.006C415.234 414.006 416.549 412.692 416.549 411.07C416.549 409.449 415.234 408.134 413.613 408.134C411.991 408.134 410.677 409.449 410.677 411.07C410.677 412.692 411.991 414.006 413.613 414.006Z" fill="#B8F1A3"/>
<path d="M416.557 435.559C417.983 435.559 419.139 434.062 419.139 432.215C419.139 430.368 417.983 428.872 416.557 428.872C415.13 428.872 413.974 430.368 413.974 432.215C413.974 434.062 415.13 435.559 416.557 435.559Z" fill="#B8F1A3"/>
<path d="M443.805 465.773L395.19 466.045L395.229 472.993L443.843 472.722L443.805 465.773Z" fill="#EBA42C"/>
<path d="M443.843 465.281H395.228V472.23H443.843V465.281Z" fill="#EBA42C"/>
<path d="M443.12 466.388H394.505V472.107H443.12V466.388Z" fill="#88E766"/>
<path d="M443.12 462.353H394.505V466.388H443.12V462.353Z" fill="#B8F1A3"/>
<path d="M444.019 460.37H394.774V463.444H444.019V460.37Z" fill="#00CCB3"/>
<path d="M444.296 471.445H394.505V474.52H444.296V471.445Z" fill="#00CCB3"/>
<path d="M413.436 463.067H410.362V474.235H413.436V463.067Z" fill="#00CCB3"/>
<path d="M426.887 462.191H423.812V474.228H426.887V462.191Z" fill="#00CCB3"/>
<path d="M420.1 469.039C420.741 469.039 421.261 468.52 421.261 467.879C421.261 467.238 420.741 466.718 420.1 466.718C419.459 466.718 418.939 467.238 418.939 467.879C418.939 468.52 419.459 469.039 420.1 469.039Z" fill="#00CCB3"/>
<path d="M395.658 476.442H386.173C385.5 476.442 384.855 476.174 384.38 475.699C383.904 475.223 383.637 474.578 383.637 473.905V376.667C383.637 372.768 385.186 369.028 387.943 366.27C390.701 363.513 394.441 361.964 398.34 361.964H400.854V471.107C400.873 471.802 400.753 472.493 400.501 473.139C400.248 473.786 399.869 474.376 399.384 474.873C398.9 475.371 398.32 475.766 397.68 476.035C397.04 476.305 396.352 476.443 395.658 476.442Z" fill="white"/>
<path d="M446.97 460.823C440.108 460.821 433.526 458.093 428.673 453.241C423.82 448.388 421.093 441.806 421.091 434.943L418.678 371.54L446.463 365.191L446.97 460.823Z" fill="#B8F1A3"/>
<path d="M405.958 298.66H435.349V353.785C435.349 357.227 433.983 360.528 431.55 362.962C429.117 365.397 425.817 366.765 422.375 366.767H418.955C415.512 366.767 412.21 365.4 409.775 362.965C407.341 360.53 405.973 357.228 405.973 353.785V298.66H405.958Z" fill="white"/>
<path d="M436.817 334.393V343.232C427.143 345.266 417.173 345.467 407.425 343.824V335C417.173 336.654 427.144 336.453 436.817 334.408V334.393Z" fill="#88E766"/>
<path d="M422.375 368.728H418.955C415.003 368.723 411.215 367.152 408.421 364.358C405.627 361.564 404.055 357.775 404.051 353.824V296.777H437.286V353.824C437.28 357.776 435.707 361.565 432.912 364.358C430.116 367.152 426.327 368.723 422.375 368.728ZM407.894 300.62V353.824C407.898 356.756 409.065 359.567 411.138 361.64C413.212 363.714 416.023 364.88 418.955 364.884H422.375C425.309 364.882 428.121 363.717 430.196 361.643C432.271 359.57 433.439 356.758 433.443 353.824V300.62H407.894Z" fill="#00CCB3"/>
<path d="M395.381 478.332H385.897C385.362 478.332 384.833 478.227 384.339 478.022C383.845 477.817 383.396 477.517 383.019 477.139C382.641 476.76 382.342 476.311 382.138 475.817C381.934 475.323 381.83 474.793 381.831 474.259V377.044C381.835 372.737 383.547 368.608 386.591 365.562C389.636 362.516 393.765 360.802 398.071 360.795H402.107V363.27C402.107 373.047 402.145 380.949 402.176 388.143C402.237 401.67 402.283 412.354 402.107 427.896V471.499C402.122 472.392 401.959 473.278 401.628 474.107C401.297 474.936 400.804 475.691 400.178 476.327C399.551 476.963 398.805 477.468 397.981 477.812C397.158 478.157 396.274 478.333 395.381 478.332ZM398.071 363.87C394.579 363.874 391.232 365.263 388.763 367.733C386.295 370.203 384.907 373.552 384.905 377.044V474.282C384.905 474.545 385.009 474.798 385.195 474.985C385.381 475.173 385.633 475.279 385.897 475.281H395.381C395.868 475.283 396.35 475.188 396.799 475C397.248 474.812 397.655 474.537 397.995 474.189C398.336 473.841 398.603 473.429 398.781 472.976C398.959 472.523 399.045 472.039 399.032 471.553V427.896C399.209 412.37 399.163 401.693 399.101 388.181C399.101 381.148 399.04 373.408 399.032 363.893L398.071 363.87Z" fill="#00CCB3"/>
<path d="M441.237 361.971C441.237 367.698 431.822 372.332 420.192 372.332C408.563 372.332 399.163 367.721 399.163 361.971C399.163 359.374 401.108 356.999 404.328 355.185C408.171 357.367 413.874 358.743 420.192 358.743C426.51 358.743 432.214 357.367 436.064 355.185C439.285 356.999 441.237 359.374 441.237 361.971Z" fill="#B8F1A3"/>
<path d="M441.59 361.172C441.59 366.898 432.167 371.533 420.545 371.533C419.777 371.533 419.008 371.533 418.293 371.464C418.301 371.233 418.332 371.004 418.386 370.78C418.586 370.099 418.928 369.467 419.389 368.927C419.85 368.387 420.419 367.949 421.06 367.644C422.35 367.051 423.708 366.62 425.103 366.36C427.363 365.918 429.545 365.141 431.575 364.054C433.617 362.936 435.172 361.102 435.941 358.905C436.329 357.512 436.329 356.039 435.941 354.646L436.379 354.408C439.607 356.199 441.59 358.574 441.59 361.172Z" fill="#88E766"/>
<path d="M420.476 373.462C407.825 373.462 397.91 368.236 397.91 361.564C397.91 358.49 400.023 355.6 403.859 353.44L404.627 353.017L405.396 353.44C409.162 355.577 414.673 356.799 420.499 356.799C426.325 356.799 431.852 355.577 435.61 353.44L436.379 353.017L437.148 353.44C440.991 355.6 443.112 358.482 443.112 361.564C443.058 368.213 433.135 373.462 420.476 373.462ZM404.65 356.553C402.283 358.09 400.984 359.819 400.984 361.572C400.984 365.838 408.816 370.395 420.476 370.395C432.136 370.395 439.984 365.838 439.984 361.572C439.984 359.819 438.685 358.059 436.31 356.553C432.152 358.674 426.448 359.881 420.476 359.881C414.504 359.881 408.816 358.666 404.65 356.545V356.553Z" fill="#00CCB3"/>
<path d="M445.595 474.643H455.079C455.412 474.643 455.74 474.577 456.047 474.45C456.354 474.323 456.633 474.137 456.868 473.902C457.102 473.667 457.289 473.388 457.416 473.082C457.543 472.775 457.608 472.446 457.608 472.114V374.892C457.609 372.96 457.23 371.048 456.491 369.264C455.752 367.479 454.669 365.858 453.304 364.492C451.938 363.127 450.317 362.044 448.533 361.305C446.748 360.567 444.836 360.187 442.905 360.188L442.213 408.027L440.407 469.347C440.391 470.037 440.514 470.724 440.768 471.367C441.022 472.009 441.402 472.594 441.885 473.088C442.369 473.581 442.946 473.973 443.583 474.24C444.22 474.507 444.904 474.644 445.595 474.643Z" fill="white"/>
<path d="M456.063 458.594V470.977C456.063 471.31 455.998 471.64 455.87 471.947C455.743 472.255 455.556 472.535 455.32 472.77C455.085 473.006 454.805 473.193 454.498 473.32C454.19 473.447 453.86 473.513 453.527 473.513H444.034C443.237 473.515 442.451 473.332 441.737 472.977C441.023 472.622 440.402 472.106 439.922 471.469C443.59 471.177 447.086 469.795 449.963 467.501C452.839 465.207 454.963 462.105 456.063 458.594Z" fill="#B8F1A3"/>
<path d="M449.968 467.817C451.399 467.817 452.558 466.658 452.558 465.227C452.558 463.796 451.399 462.637 449.968 462.637C448.538 462.637 447.378 463.796 447.378 465.227C447.378 466.658 448.538 467.817 449.968 467.817Z" fill="#B8F1A3"/>
<path d="M446.648 462.507C447.285 462.507 447.801 461.99 447.801 461.354C447.801 460.717 447.285 460.201 446.648 460.201C446.011 460.201 445.495 460.717 445.495 461.354C445.495 461.99 446.011 462.507 446.648 462.507Z" fill="#B8F1A3"/>
<path d="M454.334 476.188H444.849C443.953 476.189 443.066 476.011 442.24 475.664C441.414 475.318 440.666 474.809 440.039 474.169C439.412 473.529 438.92 472.769 438.591 471.936C438.262 471.103 438.103 470.212 438.124 469.316L440.245 382.048L440.645 358.682H442.182C446.488 358.688 450.615 360.401 453.659 363.445C456.704 366.49 458.417 370.617 458.423 374.923V472.114C458.423 472.65 458.317 473.181 458.111 473.677C457.906 474.172 457.604 474.622 457.224 475C456.845 475.378 456.394 475.678 455.898 475.882C455.402 476.086 454.87 476.19 454.334 476.188ZM441.198 469.385C441.188 469.871 441.275 470.354 441.454 470.806C441.633 471.258 441.9 471.67 442.24 472.017C442.58 472.364 442.986 472.64 443.434 472.828C443.882 473.016 444.363 473.113 444.849 473.113H454.334C454.598 473.111 454.85 473.005 455.036 472.818C455.221 472.631 455.325 472.378 455.325 472.114V374.892C455.317 371.664 454.126 368.552 451.977 366.144C449.828 363.736 446.871 362.2 443.666 361.825L443.312 382.101L441.198 469.385Z" fill="#00CCB3"/>
<path d="M364.46 328.929C391.827 328.929 414.013 306.743 414.013 279.376C414.013 252.009 391.827 229.823 364.46 229.823C337.093 229.823 314.907 252.009 314.907 279.376C314.907 306.743 337.093 328.929 364.46 328.929Z" fill="#B8F1A3"/>
<path d="M369.54 327.783C368.372 327.876 367.188 327.914 365.989 327.914C352.847 327.914 340.243 322.693 330.95 313.4C321.657 304.107 316.437 291.503 316.437 278.361C316.437 265.219 321.657 252.615 330.95 243.322C340.243 234.029 352.847 228.809 365.989 228.809C367.188 228.809 368.372 228.847 369.54 228.939C357.054 229.848 345.374 235.449 336.848 244.618C328.323 253.786 323.584 265.842 323.584 278.361C323.584 290.881 328.323 302.937 336.848 312.105C345.374 321.273 357.054 326.875 369.54 327.783Z" fill="white"/>
<path d="M365.497 329.689C355.312 329.689 345.356 326.669 336.887 321.011C328.418 315.352 321.818 307.309 317.92 297.899C314.022 288.489 313.002 278.135 314.99 268.146C316.977 258.156 321.881 248.98 329.083 241.778C336.285 234.576 345.461 229.671 355.451 227.684C365.44 225.697 375.795 226.717 385.204 230.615C394.614 234.513 402.657 241.113 408.316 249.582C413.974 258.05 416.995 268.007 416.995 278.192C416.995 291.85 411.569 304.949 401.911 314.606C392.254 324.264 379.155 329.689 365.497 329.689ZM365.497 230.584C356.072 230.584 346.859 233.379 339.022 238.615C331.185 243.852 325.077 251.294 321.471 260.002C317.864 268.709 316.92 278.291 318.759 287.535C320.598 296.779 325.136 305.27 331.801 311.935C338.465 318.599 346.956 323.138 356.2 324.977C365.444 326.816 375.026 325.872 383.734 322.265C392.441 318.658 399.884 312.55 405.12 304.714C410.357 296.877 413.152 287.663 413.152 278.238C413.152 265.6 408.131 253.479 399.194 244.542C390.257 235.605 378.136 230.584 365.497 230.584Z" fill="#00CCB3"/>
<path d="M475.763 328.929C503.13 328.929 525.316 306.743 525.316 279.376C525.316 252.009 503.13 229.823 475.763 229.823C448.396 229.823 426.21 252.009 426.21 279.376C426.21 306.743 448.396 328.929 475.763 328.929Z" fill="#88E766"/>
<path d="M476.778 329.689C466.592 329.689 456.636 326.669 448.167 321.011C439.699 315.352 433.098 307.309 429.2 297.899C425.303 288.489 424.283 278.135 426.27 268.146C428.257 258.156 433.161 248.98 440.364 241.778C447.566 234.576 456.741 229.671 466.731 227.684C476.72 225.697 487.075 226.717 496.485 230.615C505.895 234.513 513.937 241.113 519.596 249.582C525.255 258.05 528.275 268.007 528.275 278.192C528.275 291.85 522.849 304.949 513.192 314.606C503.534 324.264 490.436 329.689 476.778 329.689ZM476.778 230.584C467.352 230.584 458.139 233.379 450.302 238.615C442.466 243.852 436.358 251.294 432.751 260.002C429.144 268.709 428.2 278.291 430.039 287.535C431.878 296.779 436.416 305.27 443.081 311.935C449.746 318.599 458.237 323.138 467.481 324.977C476.725 326.816 486.306 325.872 495.014 322.265C503.722 318.658 511.164 312.55 516.401 304.714C521.637 296.877 524.432 287.663 524.432 278.238C524.432 265.6 519.411 253.479 510.474 244.542C501.537 235.605 489.416 230.584 476.778 230.584Z" fill="#00CCB3"/>
<path d="M425.941 163.422H416.11C381.985 163.422 354.321 191.086 354.321 225.211V275.11C354.321 309.235 381.985 336.899 416.11 336.899H425.941C460.066 336.899 487.73 309.235 487.73 275.11V225.211C487.73 191.086 460.066 163.422 425.941 163.422Z" fill="white"/>
<path d="M425.35 336.699C423.759 336.807 422.152 336.868 420.523 336.868C402.836 336.868 385.873 329.844 373.364 317.341C360.854 304.837 353.823 287.878 353.814 270.191V230.131C353.814 212.438 360.843 195.471 373.353 182.961C385.863 170.451 402.831 163.422 420.523 163.422C422.152 163.422 423.761 163.481 425.35 163.599C408.538 164.819 392.812 172.358 381.333 184.701C369.855 197.044 363.474 213.275 363.476 230.131V270.191C363.482 287.042 369.865 303.266 381.343 315.604C392.821 327.941 408.543 335.478 425.35 336.699Z" fill="white"/>
<path d="M420.669 292.735C420.159 292.735 419.67 292.532 419.31 292.172C418.95 291.811 418.747 291.323 418.747 290.813V272.835C418.747 272.325 418.95 271.837 419.31 271.476C419.67 271.116 420.159 270.914 420.669 270.914C421.178 270.914 421.667 271.116 422.027 271.476C422.388 271.837 422.59 272.325 422.59 272.835V290.813C422.59 291.323 422.388 291.811 422.027 292.172C421.667 292.532 421.178 292.735 420.669 292.735Z" fill="#00CCB3"/>
<path d="M365.021 263.442C369.351 263.442 372.861 259.932 372.861 255.603C372.861 251.273 369.351 247.763 365.021 247.763C360.691 247.763 357.181 251.273 357.181 255.603C357.181 259.932 360.691 263.442 365.021 263.442Z" fill="white"/>
<path d="M376.673 249.845C378.655 249.845 380.262 248.238 380.262 246.256C380.262 244.274 378.655 242.667 376.673 242.667C374.691 242.667 373.083 244.274 373.083 246.256C373.083 248.238 374.691 249.845 376.673 249.845Z" fill="white"/>
<path d="M411.246 266.863C410.838 266.863 410.447 266.701 410.159 266.413C409.87 266.124 409.708 265.733 409.708 265.326C409.708 262.337 408.521 259.471 406.408 257.358C404.295 255.245 401.429 254.058 398.441 254.058C395.452 254.058 392.586 255.245 390.473 257.358C388.36 259.471 387.173 262.337 387.173 265.326C387.173 265.733 387.011 266.124 386.722 266.413C386.434 266.701 386.043 266.863 385.635 266.863C385.228 266.863 384.837 266.701 384.548 266.413C384.26 266.124 384.098 265.733 384.098 265.326C384.098 261.522 385.609 257.874 388.299 255.184C390.989 252.494 394.637 250.983 398.441 250.983C402.244 250.983 405.892 252.494 408.582 255.184C411.272 257.874 412.783 261.522 412.783 265.326C412.783 265.733 412.621 266.124 412.333 266.413C412.044 266.701 411.653 266.863 411.246 266.863Z" fill="#00CCB3"/>
<path d="M455.633 266.863C455.225 266.863 454.834 266.701 454.546 266.413C454.257 266.124 454.096 265.733 454.096 265.326C454.019 262.387 452.798 259.595 450.692 257.544C448.587 255.492 445.763 254.344 442.824 254.344C439.884 254.344 437.061 255.492 434.955 257.544C432.85 259.595 431.629 262.387 431.552 265.326C431.552 265.733 431.39 266.124 431.102 266.413C430.813 266.701 430.422 266.863 430.015 266.863C429.607 266.863 429.216 266.701 428.928 266.413C428.639 266.124 428.478 265.733 428.478 265.326C428.564 261.578 430.114 258.014 432.795 255.394C435.476 252.774 439.075 251.308 442.824 251.308C446.572 251.308 450.172 252.774 452.853 255.394C455.534 258.014 457.083 261.578 457.17 265.326C457.17 265.733 457.008 266.124 456.72 266.413C456.431 266.701 456.04 266.863 455.633 266.863Z" fill="#00CCB3"/>
<path d="M424.489 338.821H415.534C398.527 338.802 382.221 332.038 370.195 320.012C358.168 307.986 351.404 291.68 351.386 274.672V225.65C351.404 208.642 358.168 192.336 370.195 180.31C382.221 168.284 398.527 161.519 415.534 161.501H424.489C441.497 161.519 457.802 168.284 469.829 180.31C481.855 192.336 488.619 208.642 488.638 225.65V274.672C488.619 291.68 481.855 307.986 469.829 320.012C457.802 332.038 441.497 338.802 424.489 338.821ZM415.534 165.344C399.546 165.362 384.218 171.722 372.912 183.027C361.607 194.333 355.247 209.661 355.229 225.65V274.672C355.247 290.66 361.607 305.989 372.912 317.294C384.218 328.6 399.546 334.959 415.534 334.978H424.489C440.477 334.959 455.806 328.6 467.111 317.294C478.417 305.989 484.776 290.66 484.794 274.672V225.65C484.776 209.661 478.417 194.333 467.111 183.027C455.806 171.722 440.477 165.362 424.489 165.344H415.534Z" fill="#00CCB3"/>
<path d="M493.088 232.567C493.088 189.763 459.737 154.022 418.617 154.022C377.496 154.022 344.161 189.763 344.161 232.567H375.159L385.835 206.365L391.423 232.567H402.099V216.534L411.753 232.567H426.495L434.627 203.36L441.59 232.567H493.088Z" fill="#B8F1A3"/>
<path d="M494.625 233.074H443.128L436.21 203.829L428.07 233.074H413.275L410.254 228.063C433.136 209.516 434.381 177.25 432.083 155.552C467.524 161.662 494.625 194.505 494.625 233.074Z" fill="#88E766"/>
<path d="M425.449 153.108C386.096 155.244 354.814 190.086 354.814 231.545H347.212C347.212 188.748 380.547 153 421.668 153C422.936 153 424.212 153.038 425.449 153.108Z" fill="#88E766"/>
<path d="M496.008 235.503H441.083L435.495 212.03L428.97 235.503H411.683L405.035 224.481V235.519H390.862L386.25 213.89L377.472 235.503H343.254V233.582C343.169 212.539 351.161 192.266 365.582 176.942C380.078 161.57 399.27 153.115 419.631 153.115C439.992 153.115 459.184 161.57 473.68 176.942C488.101 192.266 496.093 212.539 496.008 233.582V235.503ZM444.119 231.66H492.142C491.756 212.265 484.18 193.704 470.882 179.579C457.124 164.975 438.923 156.958 419.631 156.958C400.339 156.958 382.138 164.99 368.38 179.579C355.082 193.704 347.506 212.265 347.12 231.66H374.882L387.426 200.877L393.998 231.66H401.192V210.646L413.859 231.668H426.049L435.787 196.65L444.119 231.66Z" fill="#00CCB3"/>
<path d="M428.955 194.274C433.284 194.274 436.795 190.764 436.795 186.435C436.795 182.105 433.284 178.595 428.955 178.595C424.625 178.595 421.115 182.105 421.115 186.435C421.115 190.764 424.625 194.274 428.955 194.274Z" fill="white"/>
<path d="M418.978 178.157C420.909 178.157 422.475 176.591 422.475 174.66C422.475 172.728 420.909 171.163 418.978 171.163C417.046 171.163 415.48 172.728 415.48 174.66C415.48 176.591 417.046 178.157 418.978 178.157Z" fill="#E6FADF"/>
<path d="M420.838 317.376C416.126 317.372 411.608 315.499 408.277 312.167C404.945 308.835 403.071 304.318 403.067 299.606C403.067 299.198 403.229 298.807 403.518 298.519C403.806 298.231 404.197 298.069 404.605 298.069C405.012 298.069 405.403 298.231 405.692 298.519C405.98 298.807 406.142 299.198 406.142 299.606C406.097 301.564 406.444 303.511 407.162 305.332C407.88 307.154 408.955 308.814 410.324 310.214C411.693 311.615 413.328 312.727 415.133 313.487C416.937 314.247 418.876 314.638 420.834 314.638C422.792 314.638 424.731 314.247 426.535 313.487C428.34 312.727 429.975 311.615 431.344 310.214C432.712 308.814 433.787 307.154 434.506 305.332C435.224 303.511 435.571 301.564 435.526 299.606C435.526 299.198 435.688 298.807 435.976 298.519C436.265 298.231 436.656 298.069 437.063 298.069C437.471 298.069 437.862 298.231 438.15 298.519C438.439 298.807 438.601 299.198 438.601 299.606C438.596 304.317 436.724 308.833 433.394 312.164C430.064 315.496 425.548 317.37 420.838 317.376Z" fill="#00CCB3"/>
<path d="M362.132 222.604C362.752 222.36 362.973 221.445 362.625 220.56C362.278 219.675 361.493 219.155 360.873 219.399C360.252 219.643 360.031 220.558 360.379 221.443C360.727 222.328 361.512 222.848 362.132 222.604Z" fill="#E6FADF"/>
<path d="M370.21 217.156C370.711 216.959 370.879 216.191 370.584 215.44C370.289 214.69 369.643 214.241 369.141 214.438C368.64 214.635 368.472 215.403 368.767 216.154C369.062 216.905 369.708 217.354 370.21 217.156Z" fill="#E6FADF"/>
<path d="M368.79 210.502C369.565 208.098 368.752 205.685 366.974 205.112C365.197 204.539 363.127 206.023 362.352 208.427C361.577 210.831 362.39 213.244 364.167 213.817C365.945 214.39 368.015 212.906 368.79 210.502Z" fill="white"/>
<path d="M329.893 272.529C330.513 272.286 330.734 271.371 330.386 270.486C330.038 269.6 329.254 269.081 328.633 269.324C328.013 269.568 327.792 270.483 328.14 271.368C328.488 272.253 329.272 272.773 329.893 272.529Z" fill="white"/>
<path d="M337.981 267.081C338.482 266.884 338.65 266.116 338.355 265.365C338.06 264.614 337.414 264.166 336.912 264.363C336.411 264.56 336.243 265.328 336.538 266.079C336.833 266.83 337.479 267.278 337.981 267.081Z" fill="white"/>
<path d="M336.562 260.422C337.337 258.018 336.524 255.604 334.746 255.031C332.968 254.458 330.899 255.942 330.124 258.346C329.349 260.75 330.162 263.163 331.939 263.736C333.717 264.31 335.787 262.826 336.562 260.422Z" fill="white"/>
<path d="M382.407 175.967C379.62 178.718 376.992 181.625 374.536 184.675C372.111 187.671 370.197 191.047 368.871 194.667C368.779 194.928 368.218 195.528 367.811 195.436C367.403 195.343 367.319 194.506 367.419 194.198C369.279 189.079 372.568 184.729 376.127 180.84C377.203 179.702 378.3 178.595 379.417 177.519C379.609 177.296 381.899 174.752 382.207 175.052C382.514 175.352 382.591 175.759 382.407 175.967Z" fill="white"/>
<path d="M388.756 171.008L384.751 173.944C384.697 173.944 384.367 173.798 384.113 173.453C383.93 173.239 383.831 172.965 383.837 172.684L386.704 170.978L387.595 170.532C387.641 170.532 388.141 169.963 388.364 170.301C388.587 170.639 388.802 170.97 388.756 171.008Z" fill="white"/>
<path d="M189.403 345.264H213.139C219.752 345.264 226.094 347.891 230.77 352.567C235.446 357.243 238.072 363.585 238.072 370.197V474.198H164.47V370.197C164.47 363.585 167.097 357.243 171.773 352.567C176.449 347.891 182.791 345.264 189.403 345.264Z" fill="#88E766"/>
<path d="M238.594 363.989V476.382C238.594 476.382 223.605 478.123 224.359 476.382C232.995 456.427 231.011 347.537 231.011 347.537C233.4 349.559 235.316 352.08 236.626 354.922C237.936 357.764 238.608 360.859 238.594 363.989Z" fill="#B8F1A3"/>
<path d="M238.294 359.188C250.955 359.188 257.573 369.454 257.573 382.115V453.167H237.385L238.294 359.188Z" fill="white"/>
<path d="M244.092 359.577H238.361V454.631H244.092V359.577Z" fill="#88E766"/>
<path d="M238.073 454.065V473.2H238.516C248.494 473.2 256.62 464.631 256.62 454.065H238.073Z" fill="#E7FAE0"/>
<path d="M243.483 455.063V473.71C242.15 474.031 240.785 474.194 239.414 474.198H238.971V455.063H243.483Z" fill="#88E766"/>
<path d="M258.283 394.454H254.957V398.334H258.283V394.454Z" fill="#00CCB3"/>
<path d="M258.283 404.299H254.957V412.658H258.283V404.299Z" fill="#00CCB3"/>
<path d="M258.283 418.633H254.957V422.514H258.283V418.633Z" fill="#00CCB3"/>
<path d="M235.711 478.6H225.8V474.165H235.711C235.826 474.165 235.936 474.12 236.017 474.039C236.098 473.958 236.144 473.848 236.144 473.733V363.08C236.141 359.594 234.754 356.251 232.289 353.786C229.824 351.321 226.482 349.935 222.995 349.932H217.596V345.497H222.995C227.657 345.503 232.126 347.357 235.422 350.653C238.718 353.95 240.572 358.419 240.578 363.08V473.733C240.575 475.023 240.062 476.259 239.149 477.171C238.237 478.083 237.001 478.597 235.711 478.6Z" fill="#00CCB3"/>
<path d="M238.804 475.728H238.361V471.294H238.804C247.563 471.294 254.68 463.7 254.68 454.376V424.332H259.114V454.409C259.114 466.183 250.057 475.728 238.804 475.728Z" fill="#00CCB3"/>
<path d="M259.114 392.226H254.68V378.712C254.68 369.377 247.563 361.794 238.804 361.794H238.361V357.359H238.804C250.002 357.359 259.114 366.938 259.114 378.712V392.226Z" fill="#00CCB3"/>
<path d="M256.897 452.192H238.361V456.626H256.897V452.192Z" fill="#00CCB3"/>
<path d="M167.142 453.167C161.067 453.167 155.241 450.756 150.942 446.464C146.644 442.172 144.224 436.349 144.215 430.274V359.21H167.142V453.167Z" fill="white"/>
<path d="M157.697 454.62H163.428V359.565H157.697V454.62Z" fill="#88E766"/>
<path d="M163.728 454.065V473.2H163.273C153.296 473.2 145.169 464.631 145.169 454.065H163.728Z" fill="#E7FAE0"/>
<path d="M158.306 455.063V473.71C159.642 474.031 161.012 474.195 162.386 474.198H162.829V455.063H158.306Z" fill="#88E766"/>
<path d="M146.843 394.454H143.517V398.334H146.843V394.454Z" fill="#00CCB3"/>
<path d="M146.843 404.299H143.517V412.658H146.843V404.299Z" fill="#00CCB3"/>
<path d="M146.843 418.633H143.517V422.514H146.843V418.633Z" fill="#00CCB3"/>
<path d="M225.8 478.6H166.089C164.799 478.597 163.563 478.083 162.651 477.171C161.739 476.259 161.225 475.023 161.222 473.733V363.08C161.228 358.419 163.082 353.95 166.379 350.653C169.675 347.357 174.144 345.503 178.805 345.497H217.607V349.932H178.805C175.319 349.935 171.976 351.321 169.511 353.786C167.046 356.251 165.66 359.594 165.657 363.08V473.733C165.657 473.848 165.702 473.958 165.783 474.039C165.864 474.12 165.974 474.165 166.089 474.165H225.8V478.6Z" fill="#00CCB3"/>
<path d="M163.44 475.728H162.996C151.799 475.728 142.675 466.15 142.675 454.376V424.332H147.109V454.409C147.109 463.733 154.238 471.327 162.996 471.327H163.44V475.728Z" fill="#00CCB3"/>
<path d="M147.109 392.226H142.675V378.712C142.675 366.938 151.799 357.359 162.996 357.359H163.44V361.794H162.996C154.238 361.794 147.109 369.377 147.109 378.712V392.226Z" fill="#00CCB3"/>
<path d="M163.428 452.192H144.892V456.626H163.428V452.192Z" fill="#00CCB3"/>
<path d="M145.49 449.032C145.205 449.031 144.931 448.92 144.725 448.722C144.621 448.619 144.539 448.496 144.483 448.361C144.426 448.226 144.397 448.081 144.397 447.935C144.397 447.788 144.426 447.643 144.483 447.508C144.539 447.373 144.621 447.251 144.725 447.147L155.823 435.706C155.926 435.602 156.049 435.52 156.184 435.464C156.319 435.407 156.464 435.378 156.61 435.378C156.756 435.378 156.901 435.407 157.036 435.464C157.171 435.52 157.294 435.602 157.397 435.706C157.604 435.914 157.719 436.195 157.719 436.488C157.719 436.781 157.604 437.062 157.397 437.27L146.289 448.7C146.185 448.806 146.06 448.89 145.923 448.947C145.786 449.004 145.639 449.033 145.49 449.032Z" fill="#00CCB3"/>
<path d="M150.036 438.512C149.819 438.511 149.608 438.447 149.427 438.327C149.247 438.207 149.105 438.037 149.02 437.838C148.935 437.638 148.911 437.418 148.949 437.205C148.988 436.992 149.088 436.795 149.238 436.638L155.89 429.742C156.098 429.555 156.369 429.454 156.649 429.458C156.928 429.463 157.196 429.573 157.398 429.766C157.6 429.96 157.721 430.223 157.738 430.502C157.754 430.781 157.664 431.056 157.486 431.272L150.834 438.179C150.73 438.285 150.606 438.369 150.469 438.426C150.332 438.483 150.185 438.512 150.036 438.512Z" fill="#00CCB3"/>
<path d="M169.426 427.547C169.607 427.887 169.691 428.271 169.67 428.656C169.67 428.9 169.67 429.143 169.67 429.376C169.68 429.568 169.68 429.761 169.67 429.953C169.625 430.491 169.625 431.033 169.67 431.571C169.758 432.58 169.67 437.735 169.67 438.223C169.67 439.01 169.67 441.394 169.67 441.793C169.67 442.192 169.67 444.188 169.67 444.731C169.681 444.945 169.681 445.16 169.67 445.374C169.67 446.305 169.836 447.225 169.803 448.145C169.803 448.711 169.803 449.254 169.803 449.853C169.803 449.997 169.803 450.13 169.803 450.263C169.725 451.737 169.803 453.201 169.803 454.697C169.803 454.997 169.803 455.296 169.803 455.595C169.792 455.787 169.792 455.98 169.803 456.172C169.858 457.202 169.858 458.235 169.803 459.265C169.786 459.398 169.786 459.532 169.803 459.664C169.892 460.429 169.803 461.183 169.803 461.948C169.803 462.192 169.803 462.436 169.803 462.68C169.803 462.924 169.803 463.057 169.803 463.245C169.803 464.088 169.803 464.93 169.803 465.773C169.797 465.828 169.797 465.884 169.803 465.939C169.855 466.83 169.829 467.724 169.725 468.611C169.658 469.152 169.658 469.699 169.725 470.241C169.741 470.347 169.741 470.455 169.725 470.562C169.659 471.094 169.725 471.671 169.648 472.181C169.648 472.181 169.648 472.236 169.648 472.258C169.648 472.28 169.304 472.436 169.226 472.436C168.885 472.33 168.561 472.177 168.262 471.981C168.255 471.907 168.255 471.833 168.262 471.759C168.257 471.527 168.18 471.302 168.04 471.116C167.973 470.999 167.946 470.863 167.962 470.728C168.062 469.62 167.962 468.511 168.029 467.48C168.029 467.014 168.029 466.549 168.029 466.094V459.099C168.007 458.693 168.007 458.285 168.029 457.879C168.029 457.502 168.029 457.125 168.029 456.771C168.029 456.117 168.029 455.462 168.029 454.808V447.392C168.035 447.34 168.035 447.288 168.029 447.236C167.896 446.294 167.951 443.423 167.951 443.223C167.951 442.381 167.951 441.549 167.951 440.695C167.951 439.842 167.951 439.021 167.951 438.179C167.951 437.336 167.951 436.715 167.951 435.962V435.629C167.951 434.443 168.051 429.554 168.04 428.977C168.037 428.845 168.072 428.714 168.14 428.6C168.14 428.489 168.217 428.356 168.273 428.245C168.328 428.135 168.428 428.079 168.472 427.968C168.51 427.841 168.539 427.711 168.561 427.58C168.563 427.553 168.571 427.527 168.585 427.504C168.598 427.481 168.617 427.461 168.64 427.446C168.662 427.431 168.688 427.421 168.714 427.418C168.741 427.414 168.768 427.417 168.794 427.425C168.971 427.48 169.326 427.514 169.426 427.547Z" fill="#00CCB3"/>
<path d="M227.031 467.413C231.862 467.413 235.778 463.497 235.778 458.666C235.778 453.835 231.862 449.919 227.031 449.919C222.2 449.919 218.284 453.835 218.284 458.666C218.284 463.497 222.2 467.413 227.031 467.413Z" fill="#B8F1A3"/>
<path d="M217.596 447.181C219.464 447.181 220.978 445.667 220.978 443.799C220.978 441.932 219.464 440.418 217.596 440.418C215.729 440.418 214.215 441.932 214.215 443.799C214.215 445.667 215.729 447.181 217.596 447.181Z" fill="#B8F1A3"/>
<path d="M215.046 329.422C215.046 321.474 208.604 315.032 200.656 315.032C192.709 315.032 186.266 321.474 186.266 329.422V353.402C186.266 361.349 192.709 367.792 200.656 367.792C208.604 367.792 215.046 361.349 215.046 353.402V329.422Z" fill="white"/>
<path d="M213.627 333.723V349.122C199.991 345.586 190.878 340.597 184.803 335.22V334.688L213.627 333.723Z" fill="#88E766"/>
<path d="M200.401 370.02C195.991 370.02 191.761 368.268 188.642 365.149C185.524 362.03 183.771 357.801 183.771 353.39V329.388C183.771 324.978 185.524 320.748 188.642 317.629C191.761 314.511 195.991 312.759 200.401 312.759C204.811 312.759 209.041 314.511 212.16 317.629C215.279 320.748 217.031 324.978 217.031 329.388V353.379C217.032 355.564 216.603 357.728 215.768 359.746C214.933 361.765 213.708 363.6 212.164 365.145C210.619 366.691 208.786 367.916 206.767 368.753C204.749 369.589 202.586 370.02 200.401 370.02ZM200.401 317.249C197.167 317.249 194.065 318.534 191.778 320.821C189.491 323.108 188.206 326.209 188.206 329.444V353.435C188.206 356.669 189.491 359.771 191.778 362.058C194.065 364.345 197.167 365.63 200.401 365.63C203.635 365.63 206.737 364.345 209.024 362.058C211.311 359.771 212.596 356.669 212.596 353.435V329.388C212.581 326.164 211.29 323.076 209.005 320.801C206.719 318.526 203.626 317.249 200.401 317.249Z" fill="#00CCB3"/>
<path d="M204.802 353.058C204.355 353.845 203.695 354.49 202.899 354.921C202.103 355.351 201.201 355.55 200.298 355.493C199.394 355.436 198.525 355.127 197.789 354.6C197.052 354.074 196.478 353.351 196.133 352.514C196.066 352.381 196.432 351.893 197.02 351.738C197.376 351.615 197.757 351.584 198.128 351.65C198.344 352.326 198.804 352.898 199.42 353.253C200.035 353.608 200.761 353.72 201.454 353.568C201.93 353.499 202.385 353.325 202.785 353.058L203.173 352.592C203.361 352.392 203.572 352.204 203.849 352.337C204.481 352.67 204.869 352.936 204.802 353.058Z" fill="#00CCB3"/>
<path d="M153.062 334.931L152.874 326.062C152.874 325.951 153.362 325.663 153.983 325.641C154.603 325.619 155.091 325.907 155.091 326.018L154.714 331.938L154.515 333.69C154.515 333.8 154.737 335.075 154.127 335.098C153.517 335.12 153.062 335.031 153.062 334.931Z" fill="#00CCB3"/>
<path d="M156.632 325.409L150.28 334.433C150.079 334.497 149.864 334.51 149.657 334.469C149.449 334.428 149.256 334.336 149.094 334.2C148.595 333.845 148.395 333.269 148.473 333.158L153.096 327.382L154.548 325.741C154.626 325.63 155.38 324.211 155.878 324.566C156.377 324.921 156.71 325.298 156.632 325.409Z" fill="#00CCB3"/>
<path d="M276.764 322.116L269.37 309.866C269.376 309.645 269.438 309.429 269.551 309.239C269.664 309.049 269.823 308.891 270.014 308.78C270.205 308.669 270.421 308.609 270.642 308.605C270.863 308.601 271.082 308.653 271.276 308.757L275.822 317.194L277.075 319.733C277.163 319.877 278.405 321.551 277.873 321.861C277.341 322.171 276.853 322.271 276.764 322.116Z" fill="#00CCB3"/>
<path d="M272.806 306.163L271.387 324.178C271.287 324.401 271.123 324.589 270.915 324.717C270.708 324.846 270.467 324.909 270.223 324.899C269.981 324.869 269.754 324.769 269.569 324.612C269.383 324.454 269.248 324.245 269.181 324.012L270.578 311.994L271.099 308.469C271.099 308.247 271.099 305.631 271.731 305.675C272.362 305.719 272.828 305.941 272.806 306.163Z" fill="#00CCB3"/>
<path d="M309.225 63.3827L308.548 77.7284C308.434 77.9176 308.271 78.0722 308.075 78.1757C307.88 78.2792 307.66 78.3277 307.44 78.316C306.83 78.316 306.331 77.7949 306.331 77.6286L307.24 68.0833L307.617 65.2895C307.617 65.1122 307.517 63.0723 308.138 63.0723C308.759 63.0723 309.236 63.2053 309.225 63.3827Z" fill="#00CCB3"/>
<path d="M303.637 78.8366L314.834 64.6571C315.037 64.5203 315.277 64.4473 315.522 64.4473C315.767 64.4473 316.006 64.5203 316.209 64.6571C316.396 64.8142 316.532 65.0244 316.597 65.26C316.662 65.4955 316.655 65.7453 316.575 65.9764L308.737 75.1781L306.342 77.8166C306.198 77.994 304.746 80.1669 304.258 79.7789C303.77 79.3909 303.504 79.0139 303.637 78.8366Z" fill="#00CCB3"/>
<path d="M125.801 324.034L126.91 315.165C127.069 315.052 127.249 314.972 127.44 314.93C127.63 314.888 127.827 314.885 128.019 314.921C128.629 314.999 129.127 315.343 129.072 315.453L127.852 321.296L127.387 322.992C127.387 323.103 127.387 324.4 126.799 324.322C126.212 324.245 125.79 324.145 125.801 324.034Z" fill="#00CCB3"/>
<path d="M130.757 315.154L123.118 323.136C123.029 323.236 122.42 323.136 122.009 322.726C121.599 322.316 121.455 321.706 121.555 321.617L126.987 316.595L128.661 315.187C128.75 315.087 129.77 313.801 130.158 314.223C130.546 314.644 130.845 315.054 130.757 315.154Z" fill="#00CCB3"/>
<path d="M302.008 282.515L293.759 279.189C293.683 279.001 293.648 278.799 293.657 278.596C293.667 278.393 293.721 278.194 293.815 278.014C294.036 277.449 294.491 277.094 294.591 277.138L299.934 279.788L301.464 280.664C301.564 280.664 302.828 281.008 302.573 281.573C302.318 282.138 302.163 282.56 302.008 282.515Z" fill="#00CCB3"/>
<path d="M294.668 275.476L300.455 284.888C300.533 284.999 300.3 285.565 299.779 285.886C299.606 286.01 299.406 286.09 299.196 286.119C298.985 286.148 298.771 286.125 298.571 286.052L295.09 279.5L294.147 277.516C294.081 277.405 293.039 276.152 293.593 275.831C294.147 275.509 294.602 275.365 294.668 275.476Z" fill="#00CCB3"/>
<path d="M90.0482 250.798L94.4273 243.037C94.4827 242.937 95.0592 242.937 95.5913 243.237C96.1235 243.536 96.4117 244.035 96.3563 244.124L93.0304 249.079L91.9218 250.476C91.9218 250.576 91.4118 251.784 90.8796 251.485C90.3475 251.186 89.9927 250.886 90.0482 250.798Z" fill="#00CCB3"/>
<path d="M97.9744 244.434L87.897 248.957C87.775 249.012 87.2429 248.702 86.999 248.148C86.898 247.96 86.8452 247.751 86.8452 247.538C86.8452 247.325 86.898 247.116 86.999 246.928L93.9279 244.323L96.0122 243.658C96.1341 243.658 97.5088 242.76 97.7527 243.325C97.9966 243.89 98.0964 244.378 97.9744 244.434Z" fill="#00CCB3"/>
<path d="M96.8771 177.162C96.8771 177.162 75.3252 134.701 109.97 85.145H128.651V177.162H96.8771Z" fill="#88E766"/>
<path d="M131.367 179.933H95.1142L94.3493 178.415C94.1165 177.96 88.6842 167.095 87.6088 149.912C86.611 134.136 89.305 109.879 107.653 83.5819L108.473 82.4067H131.367V179.933ZM98.6175 174.39H125.823V87.9167H111.411C82.7197 129.923 95.3692 166.608 98.6175 174.39Z" fill="#00CCB3"/>
<path d="M103.684 180.233H94.9368C83.5606 180.233 74.3384 189.455 74.3384 200.831V200.842C74.3384 212.219 83.5606 221.441 94.9368 221.441H103.684C115.06 221.441 124.282 212.219 124.282 200.842V200.831C124.282 189.455 115.06 180.233 103.684 180.233Z" fill="white"/>
<path d="M103.717 223.026H94.9365C88.825 222.893 83.0087 220.372 78.7336 216.002C74.4585 211.633 72.0645 205.763 72.0645 199.65C72.0645 193.538 74.4585 187.668 78.7336 183.299C83.0087 178.929 88.825 176.408 94.9365 176.275H103.717C109.828 176.408 115.645 178.929 119.92 183.299C124.195 187.668 126.589 193.538 126.589 199.65C126.589 205.763 124.195 211.633 119.92 216.002C115.645 220.372 109.828 222.893 103.717 223.026ZM94.9697 181.818C90.3173 181.934 85.8944 183.864 82.6448 187.195C79.3953 190.527 77.5765 194.997 77.5765 199.65C77.5765 204.304 79.3953 208.774 82.6448 212.106C85.8944 215.437 90.3173 217.367 94.9697 217.483H103.717C108.369 217.367 112.792 215.437 116.042 212.106C119.291 208.774 121.11 204.304 121.11 199.65C121.11 194.997 119.291 190.527 116.042 187.195C112.792 183.864 108.369 181.934 103.717 181.818H94.9697Z" fill="#00CCB3"/>
<path d="M301.376 223.026H292.64C289.527 223.094 286.432 222.539 283.537 221.395C280.642 220.25 278.004 218.539 275.779 216.362C273.553 214.185 271.785 211.585 270.578 208.715C269.371 205.845 268.75 202.763 268.75 199.65C268.75 196.537 269.371 193.455 270.578 190.585C271.785 187.715 273.553 185.116 275.779 182.938C278.004 180.761 280.642 179.05 283.537 177.906C286.432 176.761 289.527 176.207 292.64 176.275H301.376C307.487 176.408 313.303 178.929 317.579 183.298C321.854 187.667 324.248 193.537 324.248 199.65C324.248 205.763 321.854 211.633 317.579 216.002C313.303 220.371 307.487 222.893 301.376 223.026ZM292.64 181.818C290.261 181.758 287.894 182.176 285.678 183.045C283.463 183.915 281.444 185.219 279.74 186.881C278.036 188.542 276.682 190.528 275.758 192.721C274.833 194.914 274.357 197.27 274.357 199.65C274.357 202.03 274.833 204.386 275.758 206.579C276.682 208.772 278.036 210.758 279.74 212.42C281.444 214.081 283.463 215.386 285.678 216.255C287.894 217.125 290.261 217.542 292.64 217.483H301.376C306.028 217.367 310.451 215.437 313.701 212.105C316.95 208.774 318.769 204.304 318.769 199.65C318.769 194.996 316.95 190.527 313.701 187.195C310.451 183.863 306.028 181.934 301.376 181.818H292.64Z" fill="#00CCB3"/>
<path d="M299.192 166.042C299.192 110.876 254.47 66.1543 199.304 66.1543C144.137 66.1543 99.4155 110.876 99.4155 166.042V230.11C99.4155 285.277 144.137 329.998 199.304 329.998C254.47 329.998 299.192 285.277 299.192 230.11V166.042Z" fill="white"/>
<path d="M201.776 331.605C200.501 331.605 199.215 331.683 197.929 331.683C184.812 331.683 171.823 329.099 159.704 324.079C147.585 319.06 136.573 311.702 127.298 302.426C108.565 283.694 98.041 258.287 98.041 231.795V167.694C98.041 154.574 100.625 141.583 105.647 129.463C110.668 117.343 118.028 106.33 127.305 97.0543C136.583 87.7786 147.597 80.4214 159.719 75.4028C171.84 70.3843 184.832 67.8028 197.951 67.8057C199.237 67.8057 191.654 67.8057 192.929 67.8833C139.537 69.8899 109.072 113.814 109.072 167.66V231.728C109.05 285.641 148.384 329.565 201.776 331.605Z" fill="white"/>
<path d="M91.1449 191.785C89.7306 192.668 88.56 193.891 87.7403 195.343C86.9206 196.795 86.4779 198.43 86.4525 200.097C86.4271 201.764 86.82 203.411 87.5952 204.887C88.3703 206.364 89.5031 207.622 90.8899 208.548C91.0354 209.552 90.8235 210.577 90.2913 211.441C89.5817 212.794 88.074 213.381 87.7747 213.137C85.0565 211.076 83.1054 208.165 82.2315 204.867C81.3923 201.688 81.6421 198.32 82.941 195.299C83.7485 193.637 84.8792 192.152 86.2669 190.931C86.7269 190.32 87.2763 189.782 87.8966 189.335C88.7503 188.736 89.748 188.47 90.1139 189.135C90.8899 190.488 91.3334 191.663 91.1449 191.785Z" fill="#00CCB3"/>
<path d="M308.349 186.874C310.543 188.249 312.357 190.15 313.628 192.406C314.898 194.661 315.585 197.198 315.624 199.786C315.664 202.375 315.056 204.932 313.855 207.225C312.654 209.518 310.899 211.474 308.748 212.916C308.416 213.16 306.941 212.561 306.232 211.208C305.7 210.347 305.489 209.327 305.633 208.326C307.634 207.188 309.196 205.412 310.068 203.282C310.996 201.034 311.144 198.54 310.489 196.197C310.164 194.726 309.554 193.332 308.693 192.095L307.263 190.809C306.62 190.222 306.01 189.579 306.387 188.903C307.141 187.583 308.017 186.663 308.349 186.874Z" fill="#00CCB3"/>
<path d="M291.886 185.964C292.055 186.203 292.137 186.492 292.119 186.784C292.119 186.973 292.119 187.161 292.119 187.35C292.13 187.493 292.13 187.638 292.119 187.782C292.104 188.197 292.123 188.612 292.174 189.024C292.263 189.789 292.174 193.724 292.174 194.123C292.174 194.722 292.119 196.54 292.174 196.851C292.23 197.161 292.174 198.68 292.174 199.068C292.185 199.234 292.185 199.401 292.174 199.567C292.174 200.276 292.34 200.975 292.318 201.684C292.318 202.117 292.318 202.549 292.318 202.992C292.318 203.092 292.318 203.192 292.318 203.303C292.252 204.411 292.318 205.52 292.318 206.629C292.318 206.862 292.318 207.094 292.318 207.316C292.318 207.538 292.318 207.604 292.318 207.748C292.374 208.538 292.374 209.331 292.318 210.121C292.313 210.224 292.313 210.328 292.318 210.431C292.352 211.011 292.352 211.592 292.318 212.172C292.318 212.36 292.318 212.549 292.318 212.726C292.307 212.874 292.307 213.022 292.318 213.17C292.318 213.813 292.318 214.456 292.318 215.099C292.312 215.139 292.312 215.18 292.318 215.221C292.37 215.905 292.344 216.593 292.241 217.272C292.174 217.683 292.174 218.102 292.241 218.513C292.252 218.594 292.252 218.676 292.241 218.757C292.241 219.167 292.241 219.589 292.174 219.999C292.18 220.017 292.18 220.036 292.174 220.054C292.174 220.121 291.83 220.198 291.764 220.198C291.431 220.118 291.108 220.002 290.799 219.855C290.771 219.799 290.752 219.739 290.744 219.677C290.733 219.493 290.654 219.319 290.522 219.19C290.488 219.149 290.463 219.101 290.449 219.049C290.436 218.997 290.434 218.943 290.445 218.89C290.544 218.07 290.445 217.238 290.511 216.407C290.511 216.052 290.511 215.697 290.511 215.354V210.054C290.484 209.745 290.484 209.433 290.511 209.123C290.511 208.835 290.511 208.536 290.511 208.247V206.762V200.964C290.414 199.947 290.381 198.925 290.411 197.904V195.964C290.411 195.321 290.411 194.678 290.411 194.035C290.411 193.392 290.411 192.926 290.411 192.361C290.411 192.272 290.411 192.194 290.411 192.106C290.467 191.196 290.511 187.46 290.511 187.006C290.512 186.903 290.543 186.803 290.6 186.718C290.666 186.64 290.689 186.529 290.744 186.452C290.799 186.374 290.888 186.319 290.944 186.241C290.976 186.143 291.002 186.043 291.021 185.942C291.03 185.918 291.043 185.897 291.06 185.879C291.077 185.86 291.097 185.846 291.12 185.835C291.143 185.825 291.167 185.819 291.192 185.818C291.217 185.818 291.242 185.822 291.265 185.831L291.886 185.964Z" fill="#00CCB3"/>
<path d="M199.824 233.968C199.089 233.968 198.384 233.676 197.865 233.156C197.345 232.637 197.053 231.932 197.053 231.197V202.738C197.053 202.003 197.345 201.298 197.865 200.778C198.384 200.258 199.089 199.966 199.824 199.966C200.559 199.966 201.264 200.258 201.784 200.778C202.304 201.298 202.596 202.003 202.596 202.738V231.197C202.596 231.932 202.304 232.637 201.784 233.156C201.264 233.676 200.559 233.968 199.824 233.968Z" fill="#00CCB3"/>
<path d="M198.616 335.674C171.398 335.645 145.303 324.819 126.057 305.573C106.811 286.327 95.9859 260.232 95.9565 233.014V168.946C95.9565 141.719 106.772 115.607 126.025 96.3549C145.277 77.1025 171.389 66.2866 198.616 66.2866C225.843 66.2866 251.955 77.1025 271.207 96.3549C290.46 115.607 301.276 141.719 301.276 168.946V233.014C301.246 260.232 290.421 286.327 271.175 305.573C251.929 324.819 225.834 335.645 198.616 335.674ZM198.616 71.8187C172.866 71.8481 148.18 82.0909 129.973 100.3C111.766 118.509 101.526 143.196 101.5 168.946V233.014C101.5 258.771 111.732 283.473 129.944 301.686C148.157 319.899 172.859 330.131 198.616 330.131C224.373 330.131 249.075 319.899 267.288 301.686C285.501 283.473 295.733 258.771 295.733 233.014V168.946C295.703 143.198 285.462 118.513 267.255 100.307C249.049 82.1004 224.364 71.8591 198.616 71.8298V71.8187Z" fill="#00CCB3"/>
<path d="M298.593 176.619C280.245 153.814 269.835 119.691 267.784 90.5002C239.536 96.4869 210.966 102.507 182.086 101.731C163.561 101.232 144.393 99.1365 126.555 93.9703C104.826 87.6067 89.0276 74.17 81.0786 52.7956L75.4468 36.7093C75.4468 36.7093 116.721 53.4496 179.403 16.7538C242.086 -19.942 303.936 34.1816 303.936 83.7265L320.123 75.1789C320.123 75.1789 331.209 142.118 301.575 175.732" fill="#B8F1A3"/>
<path d="M265.833 88.0938C237.585 94.0915 209.037 100.1 180.135 99.3242C161.61 98.8254 142.442 96.73 124.604 91.5638C102.919 85.2002 87.0875 71.7636 79.1275 50.4002L73.4956 34.2695C77.5777 35.7184 81.8097 36.7039 86.1119 37.2074L103.628 37.3072C103.473 37.3072 106.3 49.0809 106.588 50.2117C107.63 54.3247 110.48 58.1828 113.074 61.553C113.074 61.553 133.828 97.5726 266.199 88.5372" fill="#E7FAE0"/>
<path d="M300.556 175.432L298.682 177.427C298.032 176.615 297.389 175.783 296.753 174.933C304.135 156.89 306.972 137.31 305.014 117.914C303.056 98.5181 296.364 79.8999 285.525 63.6963C274.686 47.4926 260.032 34.1997 242.853 24.9859C225.673 15.7721 206.493 10.9197 186.998 10.8551C246.598 -16.3952 302.884 35.1009 302.884 82.3621L319.07 73.8145C319.07 73.8145 330.234 141.818 300.556 175.432Z" fill="#88E766"/>
<path d="M115.236 81.8409L111.6 79.4019C111.781 78.6629 112.216 78.0113 112.83 77.5615L115.047 79.5682L115.624 80.2555C115.624 80.2555 116.3 80.4661 115.968 80.9761C115.777 81.3058 115.53 81.5987 115.236 81.8409Z" fill="#00CCB3"/>
<path d="M137.863 88.216C131.777 87.8689 125.787 86.5399 120.125 84.2803C119.942 84.118 119.813 83.9035 119.756 83.6656C119.698 83.4277 119.715 83.178 119.804 82.95C119.899 82.7347 120.054 82.5514 120.251 82.4217C120.447 82.292 120.677 82.2214 120.912 82.2183C124.495 83.8207 128.242 85.0253 132.087 85.8102C133.196 86.0763 134.305 86.3202 135.513 86.5087C135.735 86.5087 138.285 86.5087 138.263 87.1295C138.24 87.7504 138.085 88.2271 137.863 88.216Z" fill="#00CCB3"/>
<path d="M185.302 21.0546C180.997 24.3973 176.178 27.0182 171.033 28.815C170.799 28.797 170.576 28.7091 170.392 28.5629C170.208 28.4167 170.073 28.2187 170.002 27.9946C169.932 27.7759 169.924 27.5419 169.979 27.3188C170.034 27.0956 170.149 26.8921 170.313 26.7308C173.658 25.7272 176.885 24.363 179.936 22.6621C180.856 22.1965 181.776 21.6976 182.663 21.1543C182.84 21.0657 184.525 19.5357 184.88 20.0457C185.235 20.5557 185.457 20.9326 185.302 21.0546Z" fill="#84E761"/>
<path d="M192.153 17.4633L187.596 19.8801C187.596 19.8801 187.153 19.5475 186.876 19.0043C186.663 18.6739 186.551 18.2886 186.554 17.8957L189.814 16.6762L190.823 16.4212C190.878 16.4212 191.443 15.8669 191.732 16.4212C191.941 16.7366 192.084 17.091 192.153 17.4633Z" fill="#84E761"/>
<path d="M107.841 101.531C106.952 103.844 106.468 106.293 106.411 108.77C106.094 109.011 105.699 109.126 105.302 109.092C105.102 109.109 104.9 109.084 104.709 109.019C104.518 108.954 104.343 108.851 104.194 108.715C104.389 106.912 104.79 105.138 105.391 103.427C105.602 102.939 105.824 102.462 106.067 101.996C106.067 101.908 106.3 100.744 106.866 100.977C107.431 101.209 107.875 101.453 107.841 101.531Z" fill="#00CCB3"/>
<path d="M111.4 100.821L109.471 106.054C109.094 106.114 108.708 106.06 108.363 105.899C107.991 105.795 107.659 105.583 107.409 105.289L109.128 101.963L109.737 101.021C109.737 100.954 109.848 100.134 110.425 100.345C111.001 100.555 111.478 100.755 111.4 100.821Z" fill="#00CCB3"/>
<path d="M308.05 117.905C308.866 137.485 306.193 157.054 300.156 175.698C299.924 176.385 298.87 178.026 298.294 177.826C297.717 177.627 297.817 175.698 298.039 175.022C302.169 162.771 304.826 150.073 305.955 137.195C306.32 133.403 306.587 129.601 306.664 125.787C306.664 125.432 306.664 123.149 306.609 120.965C306.553 118.781 306.609 116.674 306.886 116.663C307.044 116.667 307.2 116.703 307.344 116.768C307.489 116.833 307.619 116.926 307.727 117.041C307.835 117.157 307.92 117.292 307.975 117.441C308.03 117.589 308.056 117.747 308.05 117.905Z" fill="#00CCB3"/>
<path d="M314.358 132.373C311.4 147.181 307.115 161.693 301.553 175.732C301.343 176.253 300.345 177.417 299.779 177.184C299.214 176.951 299.292 175.421 299.491 174.911C303.32 165.659 306.589 156.186 309.28 146.541C310.101 143.703 310.888 140.854 311.609 137.994C311.764 137.462 312.883 131.054 313.471 131.165C313.743 131.218 313.985 131.372 314.15 131.596C314.314 131.82 314.388 132.097 314.358 132.373Z" fill="#00CCB3"/>
<path d="M263.582 319.566C250.035 328.191 233.937 335.409 216.687 335.409L183.638 336.517C166.388 336.517 150.291 328.191 136.743 319.566C108.151 301.407 93.2514 267.915 97.6416 234.368L99.4819 220.244C99.4819 220.244 127.597 256.219 159.681 259.467C170.224 260.52 160.257 237.15 199.969 237.239H200.357C233.826 237.239 230.101 260.52 240.644 259.467C272.728 256.241 300.843 220.244 300.843 220.244L302.684 234.368C307.074 267.915 292.185 301.407 263.582 319.566Z" fill="#B8F1A3"/>
<path d="M202.741 335.165C201.466 335.22 197.963 336.351 196.677 336.351C185.047 336.351 175.224 335.242 163.473 334.732C153.537 332.54 144.063 328.623 135.48 323.158C106.933 304.999 91.9881 271.507 96.3783 237.959L98.1743 223.835C98.1743 223.835 100.469 226.463 107.842 233.525C90.558 292.937 149.759 333.169 202.741 335.165Z" fill="white"/>
<path d="M261.144 322.182C247.132 331.105 230.86 335.833 214.248 335.807H200.479C217.091 335.833 233.363 331.105 247.374 322.182C275.922 304.023 290.866 270.531 286.476 236.984L286.332 235.875C290.653 231.8 294.701 227.445 298.449 222.837L300.289 236.961C304.68 270.531 289.735 304.023 261.144 322.182Z" fill="#88E766"/>
<path d="M262.984 47.7946C254.827 36.7982 243.47 28.5928 230.468 24.3026C229.991 24.1474 228.882 23.2716 229.049 22.684C229.215 22.0964 230.656 22.0299 231.155 22.1962C240.027 25.2733 248.168 30.1496 255.068 36.5198C257.069 38.3999 258.946 40.407 260.689 42.5286C260.877 42.706 261.964 43.9255 262.906 45.1671C263.849 46.4088 264.658 47.7059 264.414 47.8722C264.205 48.0305 263.947 48.1095 263.685 48.0953C263.423 48.0811 263.175 47.9746 262.984 47.7946Z" fill="#00CCB3"/>
<path d="M285.035 75.9544C289.768 75.9544 293.604 72.1176 293.604 67.3847C293.604 62.6517 289.768 58.8149 285.035 58.8149C280.302 58.8149 276.465 62.6517 276.465 67.3847C276.465 72.1176 280.302 75.9544 285.035 75.9544Z" fill="white"/>
<path d="M111.766 65.3119C116.499 65.3119 120.336 61.4751 120.336 56.7421C120.336 52.0092 116.499 48.1724 111.766 48.1724C107.033 48.1724 103.196 52.0092 103.196 56.7421C103.196 61.4751 107.033 65.3119 111.766 65.3119Z" fill="white"/>
<path opacity="0.65" d="M274.802 82.5069C276.688 82.5069 278.216 81.3901 278.216 80.0125C278.216 78.6349 276.688 77.5181 274.802 77.5181C272.916 77.5181 271.387 78.6349 271.387 80.0125C271.387 81.3901 272.916 82.5069 274.802 82.5069Z" fill="white"/>
<path opacity="0.65" d="M271.798 65.0454C272.741 65.0454 273.505 64.4894 273.505 63.8037C273.505 63.1179 272.741 62.562 271.798 62.562C270.855 62.562 270.09 63.1179 270.09 63.8037C270.09 64.4894 270.855 65.0454 271.798 65.0454Z" fill="white"/>
<path opacity="0.65" d="M126.988 62.9086C127.653 61.787 127.526 60.4829 126.705 59.9957C125.883 59.5086 124.678 60.0229 124.013 61.1445C123.348 62.2661 123.475 63.5702 124.296 64.0573C125.117 64.5445 126.322 64.0301 126.988 62.9086Z" fill="white"/>
<path opacity="0.65" d="M127.475 53.8228C128.31 52.4033 128.145 50.7567 127.105 50.1449C126.066 49.533 124.546 50.1877 123.71 51.6071C122.875 53.0266 123.04 54.6732 124.08 55.2851C125.119 55.8969 126.639 55.2422 127.475 53.8228Z" fill="white"/>
<path d="M114.382 158.991C128.961 140.344 149.338 129.058 173.007 129.369C179.371 129.446 186.699 130.943 189.636 136.575C190.626 138.654 191.148 140.924 191.166 143.226C191.322 146.552 190.878 150.122 188.528 152.428C186.41 154.512 183.229 155.033 180.257 155.133C169.016 155.51 158.085 151.264 146.799 151.175C134.693 151.087 128.307 155.931 117.11 160.554" fill="#E7FAE0"/>
<path d="M113.163 158.981L113.872 160.389C125.08 155.754 136.643 151.054 148.761 151.154C160.002 151.242 170.934 155.477 182.208 155.111C185.18 155.012 188.361 154.491 190.479 152.395C192.596 150.3 193.195 146.93 193.128 143.814C189.936 146.165 185.59 148.559 181.576 148.537C176.16 148.657 170.749 148.132 165.457 146.974C153.347 144.067 140.736 143.946 128.573 146.619C120.347 151.475 119.049 151.453 113.163 158.981Z" fill="#88E766"/>
<path d="M111.766 158.127C112.347 156.685 113.189 155.362 114.249 154.224C114.97 153.493 115.613 152.683 116.289 151.907C116.804 151.287 117.364 150.706 117.963 150.167C118.828 149.402 119.649 148.581 120.491 147.805C121.334 147.029 122.198 146.275 123.03 145.488C123.61 144.962 124.217 144.466 124.848 144.003C125.657 143.393 126.6 142.628 127.719 141.874C128.839 141.12 130.048 140.3 131.356 139.502C132.664 138.703 134.039 137.916 135.424 137.185C136.81 136.453 138.196 135.766 139.537 135.167L143.251 133.559C145.535 132.728 147.187 132.107 147.686 131.941L151.012 130.899C152.387 130.477 153.983 130.134 155.513 129.79C158.595 129.114 161.511 128.604 162.353 128.46C162.797 128.36 163.65 128.227 164.715 128.072C165.779 127.916 167.054 127.872 168.34 127.772C169.626 127.672 170.945 127.661 172.076 127.628C173.207 127.595 174.149 127.551 174.748 127.562C175.692 127.538 176.637 127.586 177.575 127.706C179.625 127.906 181.659 128.251 183.661 128.737C185.816 129.241 187.834 130.213 189.57 131.586C191.816 133.417 193.417 135.919 194.138 138.726C194.314 139.348 194.451 139.981 194.548 140.621C194.741 142.28 194.808 143.952 194.747 145.621C194.696 147.405 194.355 149.168 193.739 150.843C193.04 152.71 191.801 154.327 190.18 155.488C188.63 156.536 186.864 157.222 185.014 157.495C183.673 157.718 182.315 157.818 180.956 157.794H178.473C174.1 157.68 169.752 157.1 165.502 156.065C164.957 155.924 164.406 155.813 163.85 155.732C160.735 155.388 157.73 154.623 154.692 154.258L151.788 153.903C151.034 153.903 150.28 153.725 149.571 153.736C146.23 153.668 142.891 153.902 139.593 154.435C139.376 154.464 139.162 154.505 138.95 154.557C135.469 155.411 131.977 156.087 128.495 157.04C126.358 157.573 124.279 158.316 122.287 159.257C121.901 159.468 121.496 159.642 121.079 159.779C118.961 160.433 116.91 161.297 114.826 162.107C114.724 162.138 114.62 162.164 114.516 162.184C114.172 162.295 113.507 161.663 113.407 161.497C113.507 160.479 113.781 159.485 114.216 158.559C114.47 158.377 114.737 158.214 115.014 158.071C115.867 157.727 116.643 157.219 117.298 156.575C117.696 156.21 118.175 155.944 118.695 155.799C122.985 154.379 127.243 152.661 131.71 151.541C133.617 151.087 135.513 150.544 137.464 150.2C142.362 149.243 147.371 148.982 152.342 149.424C157.264 149.867 162.021 150.843 166.677 151.641C168.329 151.94 170.003 152.24 171.555 152.572C173.048 152.877 174.559 153.088 176.078 153.204C177.375 153.315 178.661 153.36 179.947 153.348C181.189 153.363 182.431 153.285 183.661 153.116C185.188 152.97 186.648 152.415 187.885 151.508C188.978 150.545 189.712 149.24 189.969 147.805C190.251 146.416 190.351 144.996 190.269 143.581C190.231 142.153 190.019 140.734 189.637 139.357C189.235 138.096 188.569 136.934 187.682 135.951C186.794 134.969 185.707 134.187 184.493 133.659C184.32 133.569 184.142 133.487 183.96 133.415C182.789 133.025 181.593 132.714 180.38 132.484C178.758 132.176 177.117 131.987 175.468 131.919C172.142 131.852 168.972 131.919 168.595 132.018C166.921 132.151 165.269 132.284 163.562 132.562C162.73 132.695 161.899 132.794 161.056 132.939L158.573 133.415C155.282 134.124 152.032 135.012 148.839 136.076C147.453 136.564 146.078 137.096 144.704 137.628L140.69 139.468C140.302 139.668 139.925 139.89 139.582 140.067C131.529 143.969 124.258 149.312 118.13 155.832C117.785 156.206 117.38 156.521 116.932 156.763C116.523 157.024 116.127 157.305 115.746 157.606C115.369 157.838 115.026 157.894 114.637 158.16C114.249 158.426 113.861 158.881 113.473 159.269C113.085 159.657 112.72 159.657 112.598 159.402C112.476 159.147 111.877 158.404 111.766 158.127Z" fill="#00CCB3"/>
<path d="M280.09 158.925C265.511 140.278 245.135 128.992 221.465 129.302C215.102 129.38 207.774 130.876 204.836 136.508C203.85 138.588 203.332 140.859 203.317 143.16C203.162 146.486 203.605 150.056 205.955 152.362C208.073 154.446 211.255 154.967 214.226 155.067C225.467 155.444 236.399 151.198 247.684 151.109C259.791 151.02 266.165 155.865 277.363 160.488" fill="#E7FAE0"/>
<path d="M280.201 158.914L279.492 160.322C268.283 155.688 256.72 150.987 244.603 151.087C233.361 151.175 222.43 155.41 211.155 155.045C208.184 154.945 204.991 154.424 202.885 152.328C200.779 150.233 200.158 146.863 200.235 143.748C203.428 146.098 207.774 148.493 211.787 148.47C217.196 148.589 222.6 148.065 227.885 146.907C239.998 144.001 252.613 143.879 264.78 146.552C273.017 151.408 274.314 151.386 280.201 158.914Z" fill="#88E766"/>
<path d="M279.558 159.679C278.322 158.874 277.222 157.879 276.299 156.73C275.633 156.009 274.902 155.355 274.214 154.668C273.527 153.98 273.106 153.637 272.54 153.105C271.764 152.329 270.988 151.553 270.157 150.887C269.325 150.222 268.438 149.546 267.574 148.903C267.186 148.581 266.565 148.149 265.789 147.584C265.013 147.018 264.115 146.309 263.061 145.61C262.008 144.912 260.844 144.114 259.647 143.393C258.45 142.672 257.13 141.863 255.833 141.176C254.536 140.488 253.228 139.768 251.975 139.169L248.494 137.562C246.354 136.73 244.791 136.087 244.303 135.921L241.122 134.812C239.813 134.38 238.306 134.036 236.853 133.637C234.715 133.092 232.54 132.699 230.346 132.462C229.913 132.462 229.104 132.34 228.128 132.207C227.153 132.074 225.911 132.018 224.692 131.908C223.472 131.797 222.23 131.797 221.155 131.763C220.08 131.73 219.182 131.763 218.661 131.763L216.133 131.919C212.763 132.161 209.532 133.361 206.82 135.378C205.345 136.505 204.304 138.106 203.871 139.912C203.749 140.355 203.683 140.832 203.594 141.309C203.046 143.886 203.184 146.562 203.993 149.069C204.371 150.057 205.035 150.91 205.9 151.519C206.889 152.144 207.994 152.563 209.149 152.75C210.245 152.962 211.358 153.074 212.474 153.082C213.213 153.126 213.953 153.126 214.692 153.082C218.738 152.794 222.84 152.284 227.031 151.641C227.582 151.581 228.13 151.493 228.672 151.375C231.771 150.671 234.905 150.135 238.062 149.768C239.071 149.601 240.124 149.546 241.166 149.457L243.605 149.346C247.232 149.154 250.869 149.37 254.447 149.989L255.135 150.1C258.896 150.649 262.576 151.662 266.088 153.116C268.184 153.966 270.323 154.706 272.496 155.333C272.933 155.442 273.36 155.591 273.771 155.776C275.8 156.741 277.895 157.572 279.957 158.459C280.057 158.459 280.134 158.57 280.234 158.626C280.556 158.792 280.589 159.734 280.511 159.878C279.721 160.523 278.829 161.032 277.873 161.386C277.565 161.337 277.262 161.267 276.964 161.175C276.12 160.829 275.215 160.659 274.303 160.677C273.774 160.665 273.254 160.532 272.784 160.289C268.755 158.519 264.606 157.037 260.367 155.854C258.59 155.355 256.788 154.948 254.968 154.635C250.483 153.753 245.896 153.51 241.343 153.914C236.765 154.324 232.153 155.244 227.419 156.131C225.745 156.431 224.093 156.686 222.352 156.841C220.612 156.996 219.16 157.162 217.541 157.284C216.155 157.395 214.747 157.462 213.35 157.484C211.902 157.524 210.452 157.449 209.016 157.262C206.727 157.01 204.552 156.131 202.73 154.723C200.922 153.159 199.695 151.03 199.248 148.681C198.899 146.93 198.776 145.142 198.883 143.36C198.948 141.588 199.231 139.83 199.725 138.127C200.291 136.303 201.257 134.629 202.552 133.227C203.817 131.886 205.321 130.792 206.987 130.001L207.663 129.679C209.018 129.011 210.447 128.505 211.92 128.171C213.772 127.756 215.656 127.504 217.552 127.418C220.007 127.344 222.465 127.404 224.913 127.595C226.709 127.717 228.494 127.828 230.268 128.105C231.155 128.227 232.042 128.327 232.929 128.471L235.556 129.003C239.056 129.7 242.501 130.645 245.867 131.83L250.223 133.504L254.492 135.378C254.902 135.588 255.323 135.777 255.722 135.998C260.181 138.343 264.428 141.07 268.416 144.147C271.891 146.836 275.142 149.803 278.139 153.016C278.505 153.404 278.812 153.845 279.048 154.324C279.248 154.734 279.558 155.244 279.746 155.677C279.935 156.109 279.924 156.464 280.123 156.885C280.323 157.306 280.711 157.794 280.977 158.249C281.243 158.703 281.221 159.058 280.977 159.125C280.733 159.191 279.846 159.634 279.558 159.679Z" fill="#00CCB3"/>
<path d="M128.927 296.595C121.311 288.668 115.313 279.333 111.267 269.112C111.123 268.735 111.2 267.571 111.777 267.36C112.353 267.15 113.185 267.937 113.329 268.303C115.819 275.017 119.174 281.379 123.307 287.227C124.493 288.968 125.746 290.686 127.076 292.338C127.198 292.493 128.074 293.447 128.872 294.322C129.67 295.198 130.424 296.141 130.202 296.351C129.792 296.784 129.216 296.894 128.927 296.595Z" fill="#00CCB3"/>
<path d="M145.845 304.899C138.117 300.509 131.511 294.388 126.544 287.017C126.424 286.755 126.387 286.464 126.436 286.181C126.486 285.898 126.62 285.636 126.821 285.431C127.087 285.327 127.379 285.306 127.657 285.369C127.936 285.432 128.189 285.577 128.384 285.786C131.458 290.612 135.257 294.935 139.648 298.602C140.923 299.71 142.242 300.819 143.628 301.772C143.75 301.861 144.637 302.36 145.457 302.881C146.278 303.402 147.043 303.99 146.888 304.211C146.544 304.755 146.067 305.065 145.845 304.899Z" fill="#00CCB3"/>
<path d="M252.984 269.822L248.261 262.294C248.261 262.206 248.472 261.696 248.993 261.374C249.514 261.053 250.102 261.019 250.102 261.119L252.873 266.396L253.594 268.004C253.66 268.092 254.503 269.112 253.993 269.401C253.483 269.689 253.051 269.922 252.984 269.822Z" fill="#00CCB3"/>
<path d="M251.166 259.821L250.345 270.841C250.345 270.974 249.813 271.296 249.237 271.251C248.66 271.207 248.128 270.819 248.128 270.675L249.126 263.347L249.525 261.196C249.525 261.063 249.458 259.456 250.068 259.5C250.678 259.544 251.166 259.688 251.166 259.821Z" fill="#00CCB3"/>
<path d="M234.447 320.808L229.725 313.28C229.725 313.18 229.935 312.681 230.456 312.349C230.614 312.233 230.793 312.15 230.984 312.106C231.175 312.062 231.373 312.058 231.565 312.094L234.337 317.371L235.057 318.989C235.113 319.078 235.966 320.098 235.445 320.386C234.924 320.675 234.536 320.896 234.447 320.808Z" fill="#00CCB3"/>
<path d="M232.629 310.808L231.809 321.828C231.809 321.961 231.277 322.282 230.7 322.238C230.124 322.193 229.592 321.794 229.592 321.661L230.59 314.333L230.989 312.182C230.989 312.038 230.922 310.442 231.532 310.486C232.142 310.531 232.641 310.675 232.629 310.808Z" fill="#00CCB3"/>
<path d="M115.757 252.549L116.788 243.68C116.788 243.569 117.32 243.336 117.897 243.414C118.473 243.492 119.005 243.824 119.005 243.935L117.897 249.789L117.453 251.496C117.453 251.607 117.453 252.904 116.877 252.826C116.3 252.749 115.746 252.66 115.757 252.549Z" fill="#00CCB3"/>
<path d="M120.591 243.613L113.063 251.695C112.963 251.795 112.365 251.695 111.954 251.296C111.544 250.897 111.389 250.276 111.478 250.187L116.81 245.132L118.462 243.702C118.562 243.602 119.504 242.305 119.948 242.715C120.391 243.125 120.679 243.513 120.591 243.613Z" fill="#00CCB3"/>
<path d="M154.759 310.375C155.72 310.375 156.499 309.264 156.499 307.892C156.499 306.521 155.72 305.409 154.759 305.409C153.797 305.409 153.018 306.521 153.018 307.892C153.018 309.264 153.797 310.375 154.759 310.375Z" fill="white"/>
<path d="M167.963 321.195C169.01 321.195 169.858 320.347 169.858 319.3C169.858 318.253 169.01 317.404 167.963 317.404C166.916 317.404 166.067 318.253 166.067 319.3C166.067 320.347 166.916 321.195 167.963 321.195Z" fill="white"/>
<path d="M149.537 322.316C150.234 320.532 151.603 319.094 153.349 318.309C155.096 317.525 157.08 317.457 158.876 318.121C160.672 318.785 162.135 320.128 162.951 321.86C163.767 323.591 163.871 325.574 163.24 327.382" fill="white"/>
<path d="M120.901 234.39C121.237 234.438 121.552 234.58 121.81 234.8C121.982 234.939 122.164 235.064 122.354 235.177C122.497 235.263 122.634 235.36 122.764 235.466C123.137 235.779 123.534 236.065 123.95 236.319C124.704 236.818 128.307 239.645 128.684 239.944C129.249 240.366 130.901 241.652 131.278 241.796C131.655 241.94 133.03 243.004 133.495 243.226C133.664 243.319 133.827 243.423 133.983 243.536C134.648 244.024 135.458 244.268 136.134 244.723C136.555 245.011 136.999 245.255 137.431 245.51C137.542 245.562 137.649 245.621 137.752 245.687C138.861 246.408 139.97 246.918 141.167 247.539L141.877 247.893C142.019 247.978 142.167 248.052 142.32 248.115C143.163 248.47 143.994 248.847 144.803 249.224C144.906 249.281 145.014 249.329 145.125 249.368C145.768 249.56 146.401 249.786 147.021 250.044L147.63 250.255C147.782 250.316 147.938 250.368 148.096 250.41C148.817 250.587 149.515 250.853 150.236 251.009H150.38C151.13 251.161 151.87 251.357 152.597 251.596C153.053 251.743 153.527 251.825 154.005 251.84C154.097 251.829 154.19 251.829 154.282 251.84C154.694 251.95 155.121 251.991 155.546 251.962C155.601 251.962 155.723 252.295 155.735 252.361C155.701 252.712 155.595 253.051 155.424 253.359C155.352 253.396 155.273 253.419 155.191 253.425C154.957 253.432 154.729 253.497 154.526 253.614C154.467 253.639 154.402 253.653 154.338 253.653C154.273 253.653 154.209 253.639 154.149 253.614C153.14 253.381 152.176 253.226 151.2 253.015C150.79 252.904 150.369 252.816 149.959 252.716C147.907 252.204 145.895 251.544 143.939 250.743C143.594 250.602 143.257 250.442 142.93 250.266C142.63 250.1 142.309 249.955 141.999 249.811L140.38 249.057C139.615 248.714 138.894 248.292 138.163 247.949C136.932 247.261 135.724 246.563 134.537 245.809C134.502 245.776 134.461 245.749 134.415 245.731C133.382 245.197 132.386 244.593 131.433 243.924C130.801 243.492 130.158 243.082 129.537 242.638C128.917 242.195 128.296 241.774 127.697 241.308C127.098 240.842 126.589 240.532 126.101 240.133L125.857 239.967C124.937 239.224 121.577 236.552 121.156 236.23C121.064 236.155 120.995 236.055 120.957 235.942C120.957 235.842 120.835 235.743 120.79 235.643C120.77 235.538 120.744 235.435 120.713 235.332C120.649 235.232 120.575 235.139 120.491 235.055C120.455 235.018 120.435 234.968 120.435 234.917C120.435 234.865 120.455 234.815 120.491 234.778C120.569 234.712 120.813 234.457 120.901 234.39Z" fill="white"/>
<path opacity="0.5" d="M130.923 236.729C131.02 236.695 131.124 236.685 131.226 236.699C131.328 236.712 131.425 236.749 131.511 236.806C131.618 236.865 131.729 236.917 131.843 236.962C131.935 236.996 132.024 237.036 132.109 237.084C132.335 237.242 132.581 237.369 132.841 237.461C133.318 237.649 135.491 239.101 135.712 239.234C136.209 239.579 136.727 239.89 137.265 240.166C137.475 240.232 138.296 240.786 138.551 240.886C138.653 240.925 138.75 240.977 138.839 241.041C139.227 241.308 139.726 241.374 140.114 241.629C140.502 241.884 140.602 241.917 140.856 242.061C140.918 242.09 140.977 242.124 141.034 242.161C141.644 242.582 142.331 242.86 142.963 243.27L143.351 243.492C143.426 243.55 143.508 243.598 143.595 243.636C144.072 243.839 144.529 244.088 144.958 244.378C145.011 244.422 145.071 244.456 145.136 244.478C145.49 244.614 145.834 244.774 146.167 244.955C146.278 244.955 146.377 245.066 146.488 245.121C146.571 245.17 146.656 245.214 146.743 245.254C147.142 245.387 147.508 245.587 147.852 245.753H147.93C148.36 245.879 148.765 246.077 149.127 246.341C149.353 246.501 149.616 246.6 149.892 246.629C149.943 246.614 149.996 246.614 150.047 246.629C150.279 246.768 150.524 246.883 150.779 246.973C150.779 246.973 150.779 247.327 150.723 247.394C150.567 247.686 150.385 247.965 150.18 248.225C150.18 248.225 150.091 248.225 150.058 248.225C149.991 248.208 149.921 248.207 149.853 248.222C149.786 248.238 149.723 248.269 149.67 248.314C149.64 248.338 149.603 248.352 149.565 248.352C149.526 248.352 149.489 248.338 149.459 248.314C148.972 248.026 148.428 247.882 147.93 247.627C147.719 247.527 147.486 247.449 147.264 247.361C146.156 246.895 145.047 246.385 144.038 245.864C143.851 245.77 143.673 245.659 143.506 245.531C143.351 245.415 143.183 245.314 143.007 245.232L142.12 244.778L140.879 244.101L138.828 242.915C138.802 242.909 138.776 242.909 138.75 242.915C138.123 242.65 137.521 242.327 136.954 241.951C136.588 241.74 136.2 241.54 135.845 241.319C135.491 241.097 135.103 240.897 134.737 240.653C134.371 240.41 134.094 240.276 133.772 240.088L133.628 240.01C133.14 239.656 131.045 238.347 130.79 238.192C130.758 238.174 130.732 238.148 130.712 238.117C130.693 238.087 130.682 238.051 130.679 238.015C130.679 237.937 130.613 237.882 130.591 237.804C130.596 237.723 130.596 237.642 130.591 237.56C130.56 237.498 130.519 237.442 130.469 237.394C130.446 237.357 130.434 237.315 130.434 237.272C130.434 237.229 130.446 237.187 130.469 237.15L130.923 236.729Z" fill="white"/>
<path d="M109.792 111.619C105.756 116.762 102.922 122.743 101.5 129.124C101.377 129.345 101.191 129.523 100.965 129.636C100.74 129.748 100.486 129.79 100.236 129.756C99.9888 129.689 99.769 129.546 99.6079 129.347C99.4467 129.148 99.3522 128.903 99.3379 128.648C100.467 124.228 102.25 120.002 104.626 116.109C105.358 115 106.112 113.892 106.943 112.861C107.043 112.639 108.662 110.178 109.16 110.577C109.659 110.976 109.936 111.431 109.792 111.619Z" fill="white"/>
<path d="M242.851 230.343C261.379 230.343 276.398 215.323 276.398 196.795C276.398 178.268 261.379 163.248 242.851 163.248C224.323 163.248 209.304 178.268 209.304 196.795C209.304 215.323 224.323 230.343 242.851 230.343Z" fill="#CCF5F0"/>
<path d="M250.755 185.255C250.755 181.398 247.628 178.271 243.771 178.271C239.914 178.271 236.787 181.398 236.787 185.255V206.197C236.787 210.054 239.914 213.181 243.771 213.181C247.628 213.181 250.755 210.054 250.755 206.197V185.255Z" fill="#425366"/>
<path d="M250.235 196.153C253.853 196.153 256.787 193.219 256.787 189.601C256.787 185.982 253.853 183.049 250.235 183.049C246.616 183.049 243.683 185.982 243.683 189.601C243.683 193.219 246.616 196.153 250.235 196.153Z" fill="white"/>
<path d="M276.41 197.527C276.491 201.985 275.683 206.414 274.033 210.556C272.383 214.698 269.924 218.469 266.801 221.65C263.677 224.831 259.951 227.358 255.84 229.083C251.729 230.807 247.315 231.696 242.857 231.696C238.398 231.696 233.985 230.807 229.874 229.083C225.763 227.358 222.036 224.831 218.913 221.65C215.789 218.469 213.33 214.698 211.681 210.556C210.031 206.414 209.223 201.985 209.304 197.527C209.304 196.496 209.304 195.488 209.448 194.49C210.222 202.813 214.076 210.548 220.255 216.179C226.433 221.81 234.492 224.931 242.851 224.931C251.211 224.931 259.269 221.81 265.448 216.179C271.626 210.548 275.48 202.813 276.254 194.49C276.362 195.499 276.414 196.513 276.41 197.527Z" fill="white"/>
<path d="M211.987 199.678C212.443 206.441 215.079 212.875 219.501 218.013C223.923 223.152 229.892 226.718 236.512 228.177C243.132 229.636 250.047 228.909 256.219 226.105C262.391 223.301 267.488 218.572 270.745 212.627C272.587 209.242 273.779 205.541 274.259 201.718C274.345 201.342 274.453 200.972 274.58 200.609C274.725 200.152 274.907 199.707 275.124 199.279C275.578 198.403 276.166 197.616 276.775 197.616C277.385 197.616 277.884 198.425 278.261 199.434C278.437 199.942 278.567 200.465 278.649 200.997C278.71 201.424 278.71 201.857 278.649 202.283C277.814 208.084 275.554 213.588 272.071 218.303C268.589 223.018 263.993 226.796 258.694 229.301C258.028 229.6 257.385 229.932 256.709 230.199L254.658 230.919L253.638 231.274L252.53 231.54L250.423 232.05C249.714 232.194 248.993 232.261 248.284 232.371C247.572 232.493 246.854 232.571 246.133 232.604C244.697 232.698 243.256 232.698 241.82 232.604C236.113 232.347 230.56 230.666 225.667 227.715C222.798 225.961 220.208 223.786 217.985 221.263C215.746 218.784 213.896 215.981 212.497 212.948C211.189 210.464 210.23 207.812 209.648 205.066C208.883 201.307 209.127 197.627 209.648 197.649C210.22 197.634 210.778 197.834 211.211 198.209C211.644 198.585 211.921 199.109 211.987 199.678Z" fill="#00CCB3"/>
<path d="M156.976 228.936C175.718 228.936 190.911 213.742 190.911 195C190.911 176.258 175.718 161.065 156.976 161.065C138.234 161.065 123.041 176.258 123.041 195C123.041 213.742 138.234 228.936 156.976 228.936Z" fill="#CCF5F0"/>
<path d="M123.041 195.743C123.041 200.199 123.919 204.612 125.624 208.729C127.329 212.846 129.829 216.587 132.98 219.739C136.131 222.89 139.872 225.389 143.99 227.095C148.107 228.8 152.52 229.678 156.976 229.678C161.433 229.678 165.845 228.8 169.963 227.095C174.08 225.389 177.821 222.89 180.972 219.739C184.123 216.587 186.623 212.846 188.328 208.729C190.034 204.612 190.911 200.199 190.911 195.743C190.911 194.701 190.911 193.681 190.767 192.661C190.003 201.093 186.113 208.935 179.861 214.645C173.61 220.355 165.449 223.522 156.982 223.522C148.515 223.522 140.354 220.355 134.102 214.645C127.851 208.935 123.96 201.093 123.196 192.661C123.088 193.684 123.037 194.713 123.041 195.743Z" fill="white"/>
<path d="M191.532 198.226C191.093 204.904 188.811 211.331 184.94 216.791C181.069 222.251 175.761 226.531 169.604 229.157C163.431 231.74 156.666 232.572 150.051 231.561C143.436 230.55 137.228 227.735 132.11 223.425C125.243 217.639 120.803 209.483 119.671 200.576C119.61 200.149 119.61 199.716 119.671 199.29C119.76 198.752 119.894 198.221 120.07 197.705C120.413 196.685 120.935 195.864 121.544 195.864C122.154 195.864 122.753 196.662 123.196 197.549C123.413 197.985 123.595 198.437 123.739 198.902C123.873 199.263 123.981 199.634 124.061 200.011C124.688 205.243 126.6 210.239 129.628 214.553C132.655 218.867 136.703 222.364 141.411 224.733C142.01 225.021 142.586 225.343 143.196 225.609L145.047 226.307L145.968 226.662L146.921 226.928L148.839 227.449C149.482 227.593 150.147 227.671 150.801 227.793C151.449 227.924 152.104 228.017 152.763 228.07C154.086 228.203 155.415 228.247 156.743 228.203C162.105 228.111 167.356 226.666 172.009 224.001C177.607 220.91 182.181 216.252 185.169 210.598C186.332 208.169 187.221 205.618 187.819 202.993C188.661 199.423 188.827 195.875 189.481 195.864C189.774 195.876 190.061 195.948 190.325 196.075C190.589 196.202 190.824 196.382 191.016 196.603C191.208 196.824 191.353 197.082 191.442 197.361C191.53 197.64 191.561 197.934 191.532 198.226Z" fill="#00CCB3"/>
<path d="M194.736 275.476H188.617C188.029 275.476 187.465 275.242 187.049 274.826C186.633 274.41 186.399 273.846 186.399 273.258C186.399 272.67 186.633 272.106 187.049 271.69C187.465 271.275 188.029 271.041 188.617 271.041H194.736C203.303 271.055 211.668 268.443 218.705 263.558C219.189 263.223 219.786 263.093 220.365 263.198C220.944 263.303 221.457 263.634 221.793 264.118C222.128 264.601 222.257 265.198 222.152 265.777C222.047 266.356 221.716 266.87 221.233 267.205C213.452 272.602 204.206 275.488 194.736 275.476Z" fill="#00CCB3"/>
<path opacity="0.8" d="M127.974 247.882C128.668 248.051 129.303 248.403 129.814 248.902C130.158 249.212 130.557 249.456 130.923 249.744C131.221 249.94 131.506 250.154 131.777 250.387C132.542 251.07 133.369 251.678 134.249 252.205C135.058 252.693 137.375 254.423 139.792 255.853C141.464 256.884 143.192 257.821 144.969 258.658C146.054 259.168 147.164 259.623 148.295 260.021C149.25 260.388 150.232 260.677 151.233 260.886C152.992 261.311 154.772 261.64 156.566 261.873C156.954 261.873 157.342 261.939 157.674 261.983C159.105 262.095 160.537 261.778 161.787 261.074C162.5 260.688 163.102 260.127 163.539 259.445L163.883 258.901C165.246 256.917 165.701 253.946 167.353 251.196C167.685 250.653 168.029 250.088 168.461 249.622L169.182 248.658C170.443 246.905 172.018 245.402 173.827 244.223C174.049 244.046 174.315 243.924 174.526 243.735C175.777 242.756 177.162 241.961 178.639 241.374C179.109 241.162 179.595 240.984 180.091 240.842C180.468 240.698 180.867 240.642 181.2 240.509C182.796 239.977 184.315 239.644 185.9 239.168C186.003 239.15 186.104 239.12 186.199 239.079C187.865 238.497 189.597 238.125 191.355 237.97C192.437 237.866 193.508 237.674 194.559 237.394C194.771 237.33 194.991 237.293 195.213 237.283C196.321 237.283 197.43 237.194 198.539 237.283C198.539 237.283 198.638 237.283 198.694 237.283C198.749 237.283 199.037 237.982 199.037 238.126C198.807 238.793 198.51 239.436 198.151 240.044C198.019 240.101 197.882 240.142 197.74 240.166C197.327 240.202 196.938 240.373 196.632 240.653C196.448 240.812 196.209 240.892 195.967 240.875C193.963 240.992 191.976 241.307 190.035 241.817C189.193 241.995 188.35 242.261 187.497 242.494L184.27 243.381L182.63 243.824C182.12 243.979 181.665 244.079 181.188 244.267C179.24 244.952 177.413 245.943 175.778 247.205L174.06 248.536C173.525 248.949 173.034 249.417 172.596 249.933C171.839 250.809 171.167 251.756 170.59 252.76C169.77 254.242 169.08 255.793 168.528 257.394C167.984 258.937 167.239 260.402 166.311 261.751C165.217 263.257 163.659 264.363 161.876 264.899C161.751 264.924 161.628 264.961 161.51 265.01C160.795 265.262 160.049 265.415 159.293 265.465C158.369 265.526 157.441 265.503 156.521 265.398C154.759 265.198 153.306 264.844 153.096 264.81C151.43 264.504 149.785 264.089 148.173 263.569C146.559 263.068 144.977 262.464 143.439 261.762C142.12 261.13 140.779 260.531 139.504 259.822C139.315 259.722 139.116 259.633 138.927 259.522C137.907 258.89 135.335 257.305 133.063 255.564C130.79 253.824 128.739 252.083 128.307 251.695C128.105 251.535 127.955 251.319 127.874 251.074C127.785 250.853 127.619 250.642 127.542 250.409C127.464 250.176 127.486 249.966 127.397 249.766C127.267 249.544 127.119 249.332 126.954 249.134C126.921 249.093 126.898 249.044 126.885 248.993C126.872 248.941 126.87 248.887 126.879 248.835C126.889 248.782 126.909 248.733 126.939 248.689C126.969 248.645 127.008 248.608 127.054 248.58C127.253 248.458 127.785 247.992 127.974 247.882Z" fill="white"/>
<path d="M120.502 254.644L134.548 261.761C134.691 261.945 134.779 262.165 134.802 262.396C134.826 262.628 134.784 262.861 134.681 263.07C134.582 263.278 134.425 263.453 134.228 263.573C134.031 263.693 133.803 263.753 133.573 263.746L124.371 258.591L121.71 256.961C121.544 256.883 119.427 256.03 119.704 255.487C119.981 254.943 120.347 254.555 120.502 254.644Z" fill="#00CCB3"/>
<path d="M209.171 248.924C202.561 248.447 195.92 248.636 189.348 249.489C189.098 249.446 188.866 249.329 188.682 249.154C188.498 248.978 188.371 248.751 188.317 248.502C188.303 248.246 188.368 247.992 188.503 247.774C188.637 247.556 188.836 247.385 189.071 247.283C193.57 246.858 198.092 246.732 202.608 246.906C203.938 246.995 205.257 247.106 206.577 247.25C206.82 247.25 209.747 247.25 209.703 247.848C209.659 248.447 209.415 248.935 209.171 248.924Z" fill="#00CCB3"/>
<path d="M114.238 42.9059C132.088 41.1634 149.503 36.3475 165.712 28.671C166.3 28.3828 168.073 28.0834 168.351 28.671C168.628 29.2586 167.242 30.4227 166.666 30.7109C155.637 35.7522 144.064 39.5057 132.176 41.897C128.673 42.5511 125.158 43.1276 121.622 43.5489C121.3 43.5489 119.205 43.9369 117.187 44.1587C115.169 44.3804 113.196 44.4358 113.163 44.1587C113.151 44.0057 113.169 43.8519 113.217 43.706C113.264 43.5601 113.34 43.4251 113.44 43.3086C113.54 43.1922 113.662 43.0967 113.799 43.0276C113.936 42.9585 114.085 42.9171 114.238 42.9059Z" fill="#84E761"/>
<path d="M255.489 84.3801C229.166 91.6776 201.837 94.6726 174.559 93.2492C173.55 93.2492 170.956 92.5507 171 91.941C171.044 91.3312 173.672 91.0319 174.67 91.0319C192.74 92.1183 210.875 91.2522 228.76 88.4488C234.026 87.6506 239.281 86.7304 244.491 85.5885C244.979 85.4998 248.061 84.7016 251.044 83.9699C254.026 83.2382 256.853 82.5176 256.941 82.8613C257.097 83.4156 256.454 84.1029 255.489 84.3801Z" fill="#00CCB3"/>
<path d="M243.993 81.8194C224.766 87.1238 204.808 89.2876 184.892 88.2274C184.16 88.2274 182.264 87.7063 182.297 87.2628C182.331 86.8194 184.26 86.5644 184.98 86.6087C198.171 87.4186 211.41 86.8054 224.47 84.7795C228.317 84.203 232.153 83.5378 235.955 82.7063C236.321 82.6398 238.572 82.0522 240.745 81.5201C242.917 80.988 244.991 80.4115 245.057 80.6886C245.179 81.121 244.702 81.6199 243.993 81.8194Z" fill="#00CCB3"/>
<path d="M149.171 206.196C149.171 210.054 152.298 213.181 156.156 213.181C160.013 213.181 163.14 210.054 163.14 206.196V185.254C163.14 181.397 160.013 178.27 156.156 178.27C152.298 178.27 149.171 181.397 149.171 185.254V206.196Z" fill="#425366"/>
<path d="M149.703 196.153C153.322 196.153 156.255 193.219 156.255 189.601C156.255 185.982 153.322 183.049 149.703 183.049C146.085 183.049 143.151 185.982 143.151 189.601C143.151 193.219 146.085 196.153 149.703 196.153Z" fill="white"/>
<path d="M276.165 284.588C277.127 284.588 277.906 283.476 277.906 282.105C277.906 280.733 277.127 279.622 276.165 279.622C275.204 279.622 274.425 280.733 274.425 282.105C274.425 283.476 275.204 284.588 276.165 284.588Z" fill="white"/>
<path d="M262.441 286.883C263.218 286.883 263.849 285.94 263.849 284.777C263.849 283.613 263.218 282.67 262.441 282.67C261.663 282.67 261.033 283.613 261.033 284.777C261.033 285.94 261.663 286.883 262.441 286.883Z" fill="white"/>
<path d="M268.394 298.548C270.703 295.73 270.885 292.062 268.802 290.354C266.718 288.647 263.157 289.547 260.848 292.365C258.539 295.183 258.356 298.851 260.44 300.559C262.524 302.266 266.085 301.366 268.394 298.548Z" fill="white"/>
<path d="M297.917 177.728C297.502 177.727 297.092 177.633 296.717 177.453C296.343 177.272 296.014 177.01 295.755 176.685C279.225 156.153 267.43 124.025 264.603 92.2074C237.541 97.928 209.625 103.582 181.344 102.839C159.737 102.252 141.344 99.6685 125.103 94.9236C101.755 88.1166 85.8462 73.7154 77.7975 52.097L72.1546 35.922C71.9791 35.4188 71.9524 34.8757 72.0777 34.3577C72.203 33.8397 72.475 33.3688 72.8611 33.0015C73.2471 32.6341 73.7309 32.3859 74.2545 32.2864C74.7781 32.187 75.3192 32.2406 75.8131 32.4409C76.2122 32.5961 116.733 48.1724 177.331 12.6628C205.047 -3.55648 234.98 -4.05537 261.742 11.266C286.764 25.6117 304.037 51.7977 305.866 77.5513L318.15 71.0768C318.538 70.8729 318.97 70.7639 319.409 70.7586C319.848 70.7534 320.282 70.8521 320.676 71.0468C321.069 71.2414 321.411 71.5264 321.673 71.8784C321.936 72.2305 322.111 72.6396 322.185 73.0724C324.018 85.7374 324.649 98.5475 324.07 111.331C322.806 139.757 315.711 161.497 303.006 175.92C302.649 176.322 302.185 176.612 301.667 176.756C301.15 176.9 300.602 176.891 300.09 176.73C299.967 176.876 299.83 177.01 299.68 177.129C299.181 177.529 298.557 177.741 297.917 177.728ZM267.108 86.0656C267.812 86.0613 268.492 86.3264 269.007 86.8066C269.522 87.2868 269.834 87.9458 269.88 88.6487C272.097 119.768 283.183 151.497 299.07 171.94C323.26 144.158 319.025 92.3072 317.241 77.8173L304.558 84.4691C304.135 84.6928 303.662 84.8035 303.184 84.7904C302.707 84.7772 302.24 84.6407 301.831 84.3941C301.421 84.1476 301.083 83.7993 300.848 83.3831C300.612 82.9669 300.489 82.497 300.489 82.0191C300.489 56.7754 283.804 30.2569 258.982 16.0331C244.569 7.7516 215.08 -3.07977 180.136 17.3967C129.36 47.1525 92.5535 42.5295 79.1833 39.2147L83.0192 50.1791C90.4138 70.0458 105.081 83.2718 126.655 89.6021C142.431 94.203 160.369 96.7196 181.488 97.2961C210.224 98.0832 238.838 91.9968 266.543 86.1321C266.728 86.0881 266.918 86.0658 267.108 86.0656Z" fill="#00CCB3"/>
<path d="M182.242 338.801C163.55 338.801 146.633 329.543 133.972 321.484C105.003 303.058 89.2274 268.702 93.7728 233.901L96.4668 213.281L100.535 218.491C105.898 225.008 111.835 231.029 118.274 236.485C127.985 244.744 142.863 254.91 158.628 256.44C160.036 256.573 160.457 256.263 162.286 252.382C165.457 245.609 170.779 234.29 198.251 234.29H198.982C221.454 234.29 228.35 244.578 232.918 251.362C235.567 255.287 236.676 256.651 238.694 256.44C269.115 253.38 296.465 218.746 296.731 218.436L300.81 213.214L303.504 233.846C308.05 268.602 292.263 302.958 263.305 321.428C246.166 332.337 230.412 337.636 215.113 337.636L182.297 338.745L182.242 338.801ZM100.292 226.828L99.2827 234.666C95.0145 267.294 109.804 299.533 136.976 316.805C149.005 324.466 165.014 333.257 182.198 333.257L215.013 332.149C229.303 332.149 244.093 327.138 260.312 316.805C287.474 299.533 302.263 267.294 298.006 234.666L296.975 226.806C287.906 236.95 265.079 259.467 239.248 262.061C233.771 262.615 230.989 258.513 228.317 254.555C223.938 248.048 218.472 239.932 198.849 239.932H198.228C174.293 239.932 170.258 248.547 167.297 254.833C165.59 258.48 163.661 262.593 158.074 262.061C132.198 259.467 109.371 236.95 100.292 226.806V226.828Z" fill="#00CCB3"/>
<rect y="476" width="610" height="4" fill="#00CCB3"/>
</svg>
